<svg xmlns="http://www.w3.org/2000/svg" xmlns:xlink="http://www.w3.org/1999/xlink" width="617.744" height="588.782" viewBox="0 0 617.744 588.782"><defs><filter id="a" x="0" y="0" width="617.744" height="588.782" filterUnits="userSpaceOnUse"><feOffset dy="9" input="SourceAlpha"/><feGaussianBlur stdDeviation="2" result="b"/><feFlood flood-opacity="0.09"/><feComposite operator="in" in2="b"/><feComposite in="SourceGraphic"/></filter></defs><g transform="translate(-9098.342 3233.237)"><g transform="matrix(1, 0, 0, 1, 9098.34, -3233.24)" filter="url(#a)"><path d="M489.627,242.327l-13.015,37.343a15.146,15.146,0,0,0-1.743,2.275A148.268,148.268,0,0,1,447.1,320.532a313.728,313.728,0,0,1-85.191,60.029c-45.976,23.165-131.486,48.13-177.853,60.826a48.993,48.993,0,0,1-51.884-17.427c-23.922-31.4-63.094-84.26-82.054-117.754A427.769,427.769,0,0,1,4.681,192.763,165.219,165.219,0,0,1,26.5,63.978c54.358-86.884,186.955-84.857,239.177,3.53,4.481,7.518,7.9,15.684,12.1,24a23.823,23.823,0,0,1,1.927-1.429c45.909-25.241,92.61-27.634,138.847-2.828,50.724,27.161,74.947,70.794,74.374,127.545a248.376,248.376,0,0,1-3.279,27.534Z" transform="matrix(0.95, -0.31, 0.31, 0.95, 6, 152.32)" fill="#1c3a66"/></g><path d="M428.467,249.677a13.616,13.616,0,0,0-1.566,2.046,133.275,133.275,0,0,1-24.96,34.679,282.039,282.039,0,0,1-76.587,53.96c-41.326,20.83-118.2,43.273-159.886,54.677a44.047,44.047,0,0,1-46.643-15.664C97.318,351.154,62.1,303.637,45.058,273.522a384.482,384.482,0,0,1-40.85-101.96A148.5,148.5,0,0,1,23.82,55.8c48.872-78.108,150.8-72.7,197.744,6.744,4.031,6.757,19.418,42.536,20.036,42.135,41.274-22.689,93.108-50.258,134.682-27.962,45.588,24.415,67.364,63.637,66.848,114.649a223.242,223.242,0,0,1-2.948,24.748Z" transform="matrix(0.951, -0.309, 0.309, 0.951, 9135.469, -3065.672)" fill="none" stroke="#fff" stroke-miterlimit="10" stroke-width="5"/></g></svg>