<?xml version="1.0" encoding="UTF-8"?>
<svg width="106px" height="148px" viewBox="0 0 106 148" version="1.1" xmlns="http://www.w3.org/2000/svg" xmlns:xlink="http://www.w3.org/1999/xlink">
    <title>Group 33</title>
    <defs>
        <linearGradient x1="65.8148436%" y1="84.4761691%" x2="34.5680589%" y2="15.1690627%" id="linearGradient-1">
            <stop stop-color="#1C3A66" offset="0%"></stop>
            <stop stop-color="#173F7A" offset="100%"></stop>
        </linearGradient>
        <path d="M48.6405811,33.7144502 C47.0138712,35.3265368 44.8485444,36.2777545 42.5615944,36.3839269 L21.2818831,36.3839269 C9.52787235,36.3839269 0,45.8896041 0,57.6140671 L0,75.8128778 C0,87.5373407 9.52787235,97.0430179 21.2818831,97.0430179 L42.5615944,97.0430179 C44.9984015,97.0408511 47.3353038,98.000736 49.0662622,99.7103278 L81.0466407,131.679045 C82.1325618,132.755936 83.5876962,133.384303 85.1210169,133.438473 C85.918083,133.457974 86.7108055,133.291131 87.4318572,132.953113 C89.7014324,132.021396 91.1869726,129.819945 91.2000036,127.37148 L91.2000036,6.0554648 C91.1869726,3.60483319 89.7014324,1.40338163 87.4318572,0.473831708 C85.1666256,-0.475219261 82.5538993,0.027474403 80.8033943,1.74790013 L48.6405811,33.7144502 Z" id="path-2"></path>
        <filter x="-9.9%" y="-7.5%" width="126.3%" height="118.0%" filterUnits="objectBoundingBox" id="filter-3">
            <feOffset dx="3" dy="2" in="SourceAlpha" result="shadowOffsetOuter1"></feOffset>
            <feGaussianBlur stdDeviation="3.5" in="shadowOffsetOuter1" result="shadowBlurOuter1"></feGaussianBlur>
            <feColorMatrix values="0 0 0 0 0   0 0 0 0 0   0 0 0 0 0  0 0 0 0.390652316 0" type="matrix" in="shadowBlurOuter1"></feColorMatrix>
        </filter>
    </defs>
    <g id="Page-1" stroke="none" stroke-width="1" fill="none" fill-rule="evenodd">
        <g id="Landing-Page" transform="translate(-1105.000000, -2657.000000)">
            <g id="Group-10" transform="translate(310.000000, 2609.000000)">
                <g id="Group-79" transform="translate(745.000000, 1.000000)">
                    <g id="Group-33" transform="translate(54.000000, 52.000000)">
                        <g id="Fill-1">
                            <use fill="black" fill-opacity="1" filter="url(#filter-3)" xlink:href="#path-2"></use>
                            <use fill="url(#linearGradient-1)" fill-rule="evenodd" xlink:href="#path-2"></use>
                        </g>
                        <path d="M48.1924957,44.162251 C46.8055115,45.2640368 44.9592855,45.9141496 43.0093597,45.9867135 L24.8656059,45.9867135 C14.8437651,45.9867135 8.55469274,52.4833993 8.55469274,60.4965215 L8.55469274,72.9345576 C8.55469274,80.9476798 14.8437651,87.4443656 24.8656059,87.4443656 L43.0093597,87.4443656 C45.0870584,87.4428847 47.0795751,88.0989211 48.5554449,89.2673472 L75.8229255,116.87647 C76.7488162,117.612475 77.9895097,118.041935 79.2968673,118.078957 C79.9764711,118.092285 80.6523713,117.978256 81.2671627,117.747237 C83.2022742,117.110452 84.4688927,115.605863 84.4800034,113.932451 L84.4800034,22.3786277 C84.4688927,20.7037356 83.2022742,19.1991464 81.2671627,18.5638425 C79.3357547,17.9152106 77.1080617,18.2587782 75.615526,19.4346087 L48.1924957,44.162251 Z" id="Fill-1" stroke="#FFFFFF" stroke-width="3.84000015" opacity="0.780040923"></path>
                    </g>
                </g>
            </g>
        </g>
    </g>
</svg>