<svg xmlns="http://www.w3.org/2000/svg" viewBox="0.879 120.343 1205.669 769.623" width="1205.669" height="769.623">
<path d="M -0.695 801.08 C -0.695 743.288 0.673 307.904 0.673 216.322 C 0.673 213.635 49.817 257.809 66.986 273.552 C 100.788 304.546 166.5 366.823 182.026 380.991 C 185.841 384.472 259.074 451.351 269.669 461.496 C 285.132 476.301 302.893 493.46 319.341 510.188 C 331.307 522.358 350.833 539.442 366.197 554.17 C 377.968 565.454 398.164 583.068 410.499 594.175 C 416.282 599.382 453.436 632.126 467.044 640.869 C 484.947 652.371 477.167 653.193 522.043 671.235 C 540.245 678.553 560.912 685.83 597.227 686.758 C 622.509 687.404 650.592 683.357 672.341 674.502 C 695.975 664.88 710.095 660.115 729.354 647.276 C 743.346 637.948 818.125 574.128 830.869 561.837 C 860.538 533.223 892.65 505.177 923.35 474.962 C 963.846 435.105 980.512 421.729 1024.712 378.916 C 1033.111 370.781 1140.504 282.134 1147.442 275.197 C 1154.795 267.843 1200.499 226.993 1200.499 214.157 C 1200.499 167.077 1204.974 838.648 1204.974 800.047" style="fill: #fff;"/>
</svg>
