<?xml version="1.0" encoding="UTF-8"?>
<svg width="224px" height="242px" viewBox="0 0 224 242" version="1.1" xmlns="http://www.w3.org/2000/svg" xmlns:xlink="http://www.w3.org/1999/xlink">
  <title>4F40886E-9D0E-429E-BDCD-A5064115E81D</title>
  <defs>
    <filter x="-6.0%" y="-5.6%" width="112.1%" height="111.2%" filterUnits="objectBoundingBox" id="filter-1">
      <feOffset dx="0" dy="2" in="SourceAlpha" result="shadowOffsetOuter1"></feOffset>
      <feGaussianBlur stdDeviation="2.5" in="shadowOffsetOuter1" result="shadowBlurOuter1"></feGaussianBlur>
      <feColorMatrix values="0 0 0 0 0.225813944   0 0 0 0 0.232842096   0 0 0 0 0.245952219  0 0 0 0.169088724 0" type="matrix" in="shadowBlurOuter1" result="shadowMatrixOuter1"></feColorMatrix>
      <feMerge>
        <feMergeNode in="shadowMatrixOuter1"></feMergeNode>
        <feMergeNode in="SourceGraphic"></feMergeNode>
      </feMerge>
    </filter>
    <linearGradient x1="75.5801083%" y1="54.616848%" x2="6.91417597%" y2="-13.8721294%" id="linearGradient-2">
      <stop stop-color="#000000" stop-opacity="0.350633741" offset="0%"></stop>
      <stop stop-color="#FFFFFF" offset="100%"></stop>
    </linearGradient>
    <linearGradient x1="65.8148436%" y1="84.4761691%" x2="34.5680589%" y2="15.1690627%" id="linearGradient-3">
      <stop stop-color="#1C3A66" offset="0%"></stop>
      <stop stop-color="#173F7A" offset="100%"></stop>
    </linearGradient>
    <path d="M48.6405811,33.7144502 C47.0138712,35.3265368 44.8485444,36.2777545 42.5615944,36.3839269 L21.2818831,36.3839269 C9.52787235,36.3839269 0,45.8896041 0,57.6140671 L0,75.8128778 C0,87.5373407 9.52787235,97.0430179 21.2818831,97.0430179 L42.5615944,97.0430179 C44.9984015,97.0408511 47.3353038,98.000736 49.0662622,99.7103278 L81.0466407,131.679045 C82.1325618,132.755936 83.5876962,133.384303 85.1210169,133.438473 C85.918083,133.457974 86.7108055,133.291131 87.4318572,132.953113 C89.7014324,132.021396 91.1869726,129.819945 91.2000036,127.37148 L91.2000036,6.0554648 C91.1869726,3.60483319 89.7014324,1.40338163 87.4318572,0.473831708 C85.1666256,-0.475219261 82.5538993,0.027474403 80.8033943,1.74790013 L48.6405811,33.7144502 Z" id="path-4"></path>
    <filter x="-9.9%" y="-7.5%" width="126.3%" height="118.0%" filterUnits="objectBoundingBox" id="filter-5">
      <feOffset dx="3" dy="2" in="SourceAlpha" result="shadowOffsetOuter1"></feOffset>
      <feGaussianBlur stdDeviation="3.5" in="shadowOffsetOuter1" result="shadowBlurOuter1"></feGaussianBlur>
      <feColorMatrix values="0 0 0 0 0   0 0 0 0 0   0 0 0 0 0  0 0 0 0.390652316 0" type="matrix" in="shadowBlurOuter1"></feColorMatrix>
    </filter>
  </defs>
  <g id="Page-1" stroke="none" stroke-width="1" fill="none" fill-rule="evenodd">
    <g id="Landing-Page" transform="translate(-808.000000, -2610.000000)">
      <g id="Group-10" transform="translate(310.000000, 2609.000000)">
        <g id="Group-78" transform="translate(498.000000, 1.000000)">
          <g id="Group-37" >
            <path d="M1.94925129,73.4334581 C-0.64828512,105.340452 -0.663551916,136.0046 1.9863278,167.911594 C2.73658181,177.34234 6.81063557,186.7337 14.2324797,192.348386 C41.1500233,211.006385 68.1635297,226.067133 98.7167518,238.834745 C107.030613,242.184738 116.6138,242.184738 124.927661,238.834745 C155.47434,226.089014 182.426779,211.017325 209.307246,192.339634 C216.711643,186.72276 220.772611,177.331399 221.594837,167.905029 C224.482442,135.978343 224.371213,105.368897 221.677714,73.4356462 C220.947088,64.0005236 216.870854,54.6091633 209.444648,48.9988538 C182.509656,30.3496077 155.493969,15.269166 124.927661,2.51249523 C116.6138,-0.837498412 107.030613,-0.837498412 98.7167518,2.51249523 C68.1548058,15.2844828 41.1129468,30.3517958 14.1735935,48.9966657 C6.74302547,54.6069751 2.66460977,63.9983355 1.94925129,73.4334581" id="Fill-6" filter="url(#filter-1)" fill="#006AD9"></path>
            <path d="M1.98589104,168.642187 C2.73598009,178.057803 6.80913803,187.434095 14.2293503,193.039772 C41.1409752,211.667835 68.1485417,226.704419 98.6950458,239.451546 C107.007079,242.796164 116.588158,242.796164 124.900191,239.451546 C155.440154,226.726265 182.386667,211.678758 209.261223,193.031034 C216.663992,187.423172 220.724067,178.04688 221.546112,168.635634 C224.433083,136.760172 224.321878,106.199838 221.628971,74.3178221 C220.898506,64.8978378 216.823168,55.5215454 209.398594,49.9202375 C182.469526,31.3009132 155.459779,16.2446674 124.900191,3.50846405 C116.588158,0.163845315 107.007079,0.163845315 98.6950458,3.50846405 C68.1398197,16.2599595 41.1039068,31.3030978 14.170477,49.9180529 C6.74154279,55.5193608 2.66402387,64.8956532 1.94882269,74.3156375 C-0.648142573,106.171438 -0.663406013,136.786387 1.98589104,168.642187 Z" id="Fill-6" fill="url(#linearGradient-2)" style="mix-blend-mode: overlay;"></path>
          </g>

        </g>
      </g>
    </g>
  </g>
</svg>
