<svg xmlns="http://www.w3.org/2000/svg" width="2494" height="2540" viewBox="0 0 2494 2540">
  <defs>
    <style>
      .cls-1 {
        fill: #005766;
      }
    </style>
  </defs>
  <path id="Fill_37" data-name="Fill 37" class="cls-1" d="M22.142,1767.154c8.363,99.274,53.779,198.088,136.513,257.155,300.061,196.384,601.191,354.863,941.78,489.232,92.678,35.279,199.506,35.279,292.184,0,340.516-134.139,640.966-292.733,940.613-489.324,82.54-59.09,127.809-157.9,136.975-257.132,32.189-336.026,30.949-658.166.924-994.238-8.145-99.274-53.584-198.111-136.367-257.155-300.255-196.269-601.41-355-942.145-489.232-92.678-35.279-199.506-35.279-292.184,0C759.749,160.874,458.3,319.423,158,515.668,75.167,574.712,29.7,673.549,21.729,772.846-7.227,1108.642-7.4,1431.335,22.142,1767.154Z"/>
</svg>
