<svg xmlns="http://www.w3.org/2000/svg" width="1722.295" height="431.065" viewBox="0 0 1722.295 431.065">
  <path id="Path_2" data-name="header_footer" d="M-1892-6150.558l4.276,2.8,2.184,1.46,1.762,1.19,2.169,1.431,3.347,2.256,2.212,1.513,4.806,3.175,5.341,3.582,4.834,3.219,5.416,3.581,4.762,3.163,3.194,2.084,2.766,1.831,2.253,1.478,3.384,2.231,3.459,2.256,3.781,2.478,2.487,1.622,2.628,1.712,1.738,1.112.813.513,1.688,1.137,1.078.7.987.641.738.488.6.362,1.063.675.631.44.912.6.675.425.65.422.588.388.475.3.575.375.8.513.688.434.9.588.55.35.738.472.675.425.85.563.869.556.725.472.737.462.513.313.869.591,1.534,1,.825.525.809.509.662.413.563.35.45.288.463.325.563.338.537.34.65.425.55.362.575.362,32.039,20.154,26.872,16.894,12.137,7.426,14.121,8.69,16.476,9.9,14.9,8.911,30.005,17.787,19.934,11.556,30.214,17.219,22.138,12.542,15.1,8.386,7.5,4.05,4.66,2.629,5.96,3.221,7.451,4.01,7.256,3.969,4.063,2.2,7.081,3.831,9.145,5.07,6.358,3.225,6.837,3.567,9.9,5.261,8.917,4.6,8.044,4.273,8.5,4.364,9.713,5.009,14.284,7.272,49.372,24.551,35.531,17.236,35.747,16.942,28.806,13.354,27.747,12.628,31.178,13.785,27.805,12.1,29.825,12.726,25.021,10.314,16.3,5.569,8.314,2.588,7.53,2.118,16.334,3.647,8.785,1.8,14.53,2.275,12.746,1.49,14.02.941,12,.471h6.04l7.8-.18,9.639-.439,10.264-.714,12.132-1.346,16.629-2.526,13.656-2.719c-.027.027,12.489-2.966,12.489-2.966l13.8-4.037,18.1-6.316,14.946-6.076,11.974-5.053,12.344-5.184,15.6-6.7,21-9.118,18.092-7.9,51.1-23.053,195.112-96.21,61.277-32.631,82.815-46.627,25.186-15.045,150.783-93.021,25.451-16.57,23.2-15.111,25.451-16.835,8.086-5.7,2.784-2.121v431.065H-1892Z" transform="translate(1892 6151.579)" fill="#fff"/>
</svg>
