<svg xmlns="http://www.w3.org/2000/svg" width="2070.776" height="2226" viewBox="0 0 2070.776 2226">
  <defs>
    <linearGradient x2="6.92025%" y1="12.1125%" x1="78.620625%" y2="42.11875%" id="grad1">
      <stop stop-color="#F98D0E" offset="0%"></stop>
      <stop stop-color="#FA3C28" offset="100%"></stop>
    </linearGradient>
    <style>
      .cls-1 {
      fill: url(#grad1);
      }
    </style>
  </defs>
  <rect width="100%" height="100%" fill="#fff"/>
  <path  class="cls-1" d="M131.2,451.9C62.409,503.685,24.66,590.284,18.059,677.326-6,971.569-6.144,1254.39,18.382,1548.674c6.944,87,44.652,173.6,113.347,225.385,249.141,172.106,499.19,310.994,781.961,428.752A326.26,326.26,0,0,0,1033.416,2226h3.149a326.26,326.26,0,0,0,119.726-23.188c282.711-117.556,532.195-256.545,780.992-428.833,68.533-51.765,106.14-138.383,113.73-225.345,13.363-147.243,19.783-291.438,19.762-435.634-.04-144.216-6.52-288.431-19-435.674-6.742-87.022-44.491-173.64-113.226-225.405-249.3-172.005-499.351-311.1-782.264-428.732a328.807,328.807,0,0,0-242.58,0C630.838,140.987,380.527,279.915,131.2,451.9Z"/>
</svg>
