<?xml version="1.0" encoding="UTF-8"?>
<svg width="22px" height="16px" viewBox="0 0 22 16" version="1.1" xmlns="http://www.w3.org/2000/svg" xmlns:xlink="http://www.w3.org/1999/xlink">
  <title>youtube (1)</title>
  <g id="Page-1" stroke="none" stroke-width="1" fill="none" fill-rule="evenodd">
    <g id="Landing-Page" transform="translate(-241.000000, -877.000000)" fill="#F85708" fill-rule="nonzero">
      <g id="Group-20" transform="translate(97.000000, 826.000000)">
        <g id="youtube-(1)" transform="translate(144.000000, 51.000000)">
          <path d="M21.1454994,2.88449992 C20.8909713,1.97249104 20.1783084,1.25982809 19.2662995,1.00529997 C17.5832995,0.554387218 10.8098997,0.554387218 10.8098997,0.554387218 C10.8098997,0.554387218 4.05359989,0.545399986 2.35349994,1.00529997 C1.44149105,1.25982809 0.728828101,1.97249104 0.474299987,2.88449992 C0.15526853,4.60755938 -0.00201550647,6.35666634 0.00430560671,8.10899979 C-0.000783781929,9.85472094 0.156495099,11.597142 0.474299987,13.3136996 C0.728828101,14.2257085 1.44149105,14.9383715 2.35349994,15.1928996 C4.03469989,15.6446996 10.8098997,15.6446996 10.8098997,15.6446996 C10.8098997,15.6446996 17.5652995,15.6446996 19.2662995,15.1928996 C20.1783084,14.9383715 20.8909713,14.2257085 21.1454994,13.3136996 C21.4566647,11.5965202 21.6073146,9.85410422 21.5954994,8.10899979 C21.6085462,6.35728536 21.4578914,4.60818345 21.1454994,2.88449992 L21.1454994,2.88449992 Z M8.64809977,11.3408997 L8.64809977,4.86719987 L14.2856996,8.10899979 L8.64809977,11.3408997 Z" id="Shape"></path>
        </g>
      </g>
    </g>
  </g>
</svg>
