<svg xmlns="http://www.w3.org/2000/svg" viewBox="0 0 102.583 110.3001">
  <defs>
    <style>

      .cls-1 {
        stroke: white;
        stroke-width: 2px;
        fill: white;
        fill-opacity: 0.2;
      }
      .cls-2 {
        fill: #fff;
      }
    </style>
  </defs>
  <g id="Layer_2" data-name="Layer 2" class="background" transform="matrix(0.939591, 0, 0, 0.939591, 3.098453, 2.482322)">
    <g id="Artwork">
      <g>
        <path class="cls-1" d="M.89463,33.56088A258.61153,258.61153,0,0,0,.91074,76.73831C1.25592,81.04943,3.12286,85.3408,6.52589,87.906a206.34283,206.34283,0,0,0,38.73755,21.24516,16.28666,16.28666,0,0,0,12.01729,0A204.45565,204.45565,0,0,0,95.97,87.90217c3.39474-2.56587,5.25706-6.85769,5.63433-11.16622a243.30228,243.30228,0,0,0,.03825-43.17451c-.33559-4.31175-2.20443-8.60309-5.61006-11.16819A206.41137,206.41137,0,0,0,57.28085,1.1489a16.28646,16.28646,0,0,0-12.01729,0A207.178,207.178,0,0,0,6.4996,22.39243C3.09207,24.95738,1.22217,29.24857.89463,33.56088Z"/>
<!--        <path class="cls-2" d="M62.6026,25.67747,47.79335,40.43072a4.2552,4.2552,0,0,1-2.79948,1.23177H35.19569a9.79817,9.79817,0,0,0-9.79817,9.79818h0V59.8591a9.79817,9.79817,0,0,0,9.79817,9.79818h9.79818a4.25518,4.25518,0,0,1,2.99544,1.23177L62.71457,85.64231a2.79943,2.79943,0,0,0,1.87565.81184,2.35168,2.35168,0,0,0,1.0638-.224,2.79949,2.79949,0,0,0,1.73568-2.57553V27.6651a2.817,2.817,0,0,0-4.7871-1.98763Z"/>-->
        <path class="cls-2" d="
        M 46.547 67.778 C 40.001 59.316 57.175 43.558 65.772 54.671 C 61.137 60.261 38.751 50.965 46.547 41.564 C 55.031 42.252 51.591 68.187 46.547 67.778 Z M 68.11 53.845 C 68.383 54.031 68.547 54.34 68.547 54.671 C 68.547 55.002 68.383 55.311 68.11 55.497 L 46.11 70.497 C 45.941 70.612 45.744 70.671 45.547 70.671 C 45.387 70.671 45.226 70.633 45.08 70.555 C 44.753 70.382 44.547 70.042 44.547 69.671 L 44.547 39.671 C 44.547 39.3 44.752 38.96 45.079 38.787 C 45.407 38.614 45.803 38.637 46.11 38.845 L 68.11 53.845 Z
"/>
      </g>
    </g>
  </g>
</svg>
