<svg width="19" height="19" viewBox="0 0 19 19" fill="none" xmlns="http://www.w3.org/2000/svg">
<path fill-rule="evenodd" clip-rule="evenodd" d="M1.40204 0H17.5924C18.3667 0 19 0.61275 19 1.36879V17.6312C19 18.388 18.3667 19 17.5924 19H1.40204C0.627 19 0 18.388 0 17.6312V1.36879C0 0.61275 0.627 0 1.40204 0ZM2.59192 4.24967C2.59192 5.15137 3.31946 5.88446 4.22512 5.88446C5.12683 5.88446 5.85913 5.15137 5.85913 4.24967C5.85913 3.34875 5.12762 2.61646 4.22512 2.61646C3.32025 2.61646 2.59192 3.34875 2.59192 4.24967ZM13.3736 16.1912H16.1872H16.188V11.2148C16.188 8.77246 15.6608 6.89621 12.81 6.89621C11.438 6.89621 10.5197 7.64829 10.142 8.36079H10.1056V7.125H7.40287V16.1912H10.2165V11.7048C10.2165 10.522 10.4405 9.37808 11.9075 9.37808C13.3523 9.37808 13.3736 10.731 13.3736 11.7824V16.1912ZM2.81437 16.1912V7.125H5.63587V16.1912H2.81437Z" fill="#12333D"/>
</svg>
