<?xml version="1.0" encoding="UTF-8"?>
<svg width="22px" height="22px" viewBox="0 0 22 22" version="1.1" xmlns="http://www.w3.org/2000/svg" xmlns:xlink="http://www.w3.org/1999/xlink">
  <title>Shape</title>
  <g id="Page-1" stroke="none" stroke-width="1" fill="none" fill-rule="evenodd">
    <g id="Landing-Page" transform="translate(-196.000000, -874.000000)" fill="#F85708" fill-rule="nonzero">
      <g id="Group-20" transform="translate(97.000000, 826.000000)">
        <path d="M110,48 C107.011667,48 106.638583,48.01375 105.46525,48.066 C104.29375,48.121 103.49625,48.30525 102.795,48.5775 C102.07175,48.858 101.457583,49.23475 100.846167,49.8461667 C100.23475,50.4575833 99.8570833,51.0708333 99.5775,51.795 C99.30525,52.49625 99.1200833,53.29375 99.066,54.46525 C99.011,55.6385833 99,56.0116667 99,59 C99,61.9883333 99.01375,62.3614167 99.066,63.53475 C99.121,64.7053333 99.30525,65.50375 99.5775,66.205 C99.858,66.9273333 100.23475,67.5424167 100.846167,68.1538333 C101.457583,68.7643333 102.070833,69.1429167 102.795,69.4225 C103.497167,69.6938333 104.294667,69.8799167 105.46525,69.934 C106.638583,69.989 107.011667,70 110,70 C112.988333,70 113.361417,69.98625 114.53475,69.934 C115.705333,69.879 116.50375,69.6938333 117.205,69.4225 C117.927333,69.142 118.542417,68.7643333 119.153833,68.1538333 C119.764333,67.5424167 120.142917,66.9300833 120.4225,66.205 C120.693833,65.50375 120.879917,64.7053333 120.934,63.53475 C120.989,62.3614167 121,61.9883333 121,59 C121,56.0116667 120.98625,55.6385833 120.934,54.46525 C120.879,53.2946667 120.693833,52.4953333 120.4225,51.795 C120.142,51.07175 119.764333,50.4575833 119.153833,49.8461667 C118.542417,49.23475 117.930083,48.8570833 117.205,48.5775 C116.50375,48.30525 115.705333,48.1200833 114.53475,48.066 C113.361417,48.011 112.988333,48 110,48 Z M110,49.98 C112.936083,49.98 113.28625,49.9946667 114.445833,50.0450833 C115.518333,50.0955 116.100417,50.2733333 116.48725,50.4255 C117.002417,50.6244167 117.36725,50.86275 117.754083,51.2468333 C118.138167,51.6318333 118.3765,51.9975833 118.575417,52.51275 C118.72575,52.8995833 118.905417,53.4816667 118.954,54.5541667 C119.00625,55.7146667 119.018167,56.063 119.018167,59 C119.018167,61.937 119.004417,62.28625 118.950333,63.4458333 C118.894417,64.5183333 118.715667,65.1004167 118.564417,65.48725 C118.359083,66.0024167 118.125333,66.36725 117.740333,66.7540833 C117.35625,67.1381667 116.985,67.3765 116.475333,67.5754167 C116.090333,67.72575 115.499083,67.9054167 114.426583,67.954 C113.25875,68.00625 112.915,68.0181667 109.9725,68.0181667 C107.029083,68.0181667 106.685333,68.0044167 105.518417,67.9503333 C104.445,67.8944167 103.85375,67.7156667 103.46875,67.5644167 C102.947167,67.3590833 102.58875,67.1253333 102.204667,66.7403333 C101.81875,66.35625 101.572167,65.985 101.379667,65.4753333 C101.228417,65.0903333 101.050583,64.4990833 100.994667,63.4265833 C100.953417,62.2715833 100.93875,61.915 100.93875,58.98625 C100.93875,56.0565833 100.953417,55.6990833 100.994667,54.5303333 C101.050583,53.4578333 101.228417,52.8675 101.379667,52.4825 C101.572167,51.96 101.81875,51.6025 102.204667,51.2165833 C102.58875,50.8325 102.947167,50.585 103.46875,50.3934167 C103.85375,50.24125 104.432167,50.0625 105.504667,50.0075 C106.673417,49.96625 107.017167,49.9525 109.95875,49.9525 L110,49.98 L110,49.98 Z M110,53.3515 C106.87875,53.3515 104.3515,55.8815 104.3515,59 C104.3515,62.12125 106.8815,64.6485 110,64.6485 C113.12125,64.6485 115.6485,62.1185 115.6485,59 C115.6485,55.87875 113.1185,53.3515 110,53.3515 Z M110,62.6666667 C107.974167,62.6666667 106.333333,61.0258333 106.333333,59 C106.333333,56.9741667 107.974167,55.3333333 110,55.3333333 C112.025833,55.3333333 113.666667,56.9741667 113.666667,59 C113.666667,61.0258333 112.025833,62.6666667 110,62.6666667 Z M117.192167,53.12875 C117.192167,53.8575 116.6,54.44875 115.872167,54.44875 C115.143417,54.44875 114.552167,53.8565833 114.552167,53.12875 C114.552167,52.4009167 115.144333,51.8096656 115.872167,51.8096656 C116.599083,51.80875 117.192167,52.4009167 117.192167,53.12875 Z" id="Shape"></path>
      </g>
    </g>
  </g>
</svg>
