<?xml version="1.0" encoding="UTF-8"?>
<svg width="22px" height="18px" viewBox="0 0 22 18" version="1.1" xmlns="http://www.w3.org/2000/svg" xmlns:xlink="http://www.w3.org/1999/xlink">
    <title>Path</title>
    <g id="Page-1" stroke="none" stroke-width="1" fill="none" fill-rule="evenodd">
        <g id="Landing-Page" transform="translate(-151.000000, -876.000000)" fill="#12333D" fill-rule="nonzero">
            <g id="Group-20" transform="translate(97.000000, 826.000000)">
                <path d="M75.9569185,52.1435382 C75.1457023,52.5024863 74.2794884,52.7470139 73.367443,52.8586661 C74.2969043,52.2948685 75.0118745,51.4062644 75.3501104,50.3460296 C74.4783967,50.8581535 73.5122703,51.2309427 72.4838132,51.4385605 C71.6625141,50.5536474 70.4919795,50 69.1922003,50 C66.7017208,50 64.6823882,52.0328087 64.6823882,54.5371405 C64.6823882,54.8970113 64.7236365,55.243041 64.7988,55.5743067 C61.0497896,55.3962167 57.7270114,53.5839442 55.5032707,50.8443123 C55.1118703,51.5105347 54.8927961,52.2847183 54.8927961,53.1281079 C54.8927961,54.706003 55.6902629,56.0928897 56.8983792,56.9076742 C56.1586601,56.8836828 55.462939,56.6788332 54.856131,56.3392628 L54.856131,56.3955503 C54.856131,58.5962988 56.407983,60.4316399 58.473147,60.8496437 C58.0945794,60.9520685 57.6949294,61.0074332 57.2851965,61.0074332 C56.9973751,61.0074332 56.7214699,60.9797509 56.4455648,60.9280771 C57.0239573,62.7301994 58.6867214,64.0441893 60.6657223,64.0810991 C59.1257864,65.2982006 57.1742844,66.0234788 55.0724553,66.0234788 C54.7149702,66.0234788 54.3584017,66.0022556 54,65.9616548 C56.0064997,67.2479623 58.3704846,68 60.9269614,68 C69.2261156,68 73.7588434,61.0830984 73.7588434,55.0944789 C73.7588434,54.9016251 73.7588434,54.7069257 73.745094,54.5131491 C74.6259739,53.8773774 75.3950252,53.0736659 76,52.1619931 L75.9569185,52.1435382 Z" id="Path"></path>
            </g>
        </g>
    </g>
</svg>