<?xml version="1.0" encoding="UTF-8"?>
<svg width="22px" height="22px" viewBox="0 0 22 22" version="1.1" xmlns="http://www.w3.org/2000/svg" xmlns:xlink="http://www.w3.org/1999/xlink">
  <title>facebook (2)</title>
  <g id="Page-1" stroke="none" stroke-width="1" fill="none" fill-rule="evenodd">
    <g id="Landing-Page" transform="translate(-106.000000, -874.000000)" fill="#F85708" fill-rule="nonzero">
      <g id="Group-20" transform="translate(97.000000, 826.000000)">
        <g id="facebook-(2)" transform="translate(9.000000, 48.000000)">
          <path d="M21.5982894,10.7991897 C21.5982894,4.83494387 16.7633996,0 10.7991897,0 C4.83494387,0 0,4.83494387 0,10.7991897 C0,16.1893796 3.9491009,20.6569795 9.11177976,21.4671594 L9.11177976,13.9208396 L6.36982183,13.9208396 L6.36982183,10.7991897 L9.11177976,10.7991897 L9.11177976,8.41997678 C9.11177976,5.71343385 10.7240397,4.21842589 13.1907597,4.21842589 C14.3722796,4.21842589 15.6081596,4.42934088 15.6081596,4.42934088 L15.6081596,7.08695081 L14.2464596,7.08695081 C12.9049197,7.08695081 12.4865097,7.91939679 12.4865097,8.77341577 L12.4865097,10.7991897 L15.4816196,10.7991897 L15.0028196,13.9208396 L12.4865097,13.9208396 L12.4865097,21.4671594 C17.6492695,20.6569795 21.5982894,16.1893796 21.5982894,10.7991897 Z" id="Path"></path>
        </g>
      </g>
    </g>
  </g>
</svg>
