<svg id="Layer_1" data-name="Layer 1" xmlns="http://www.w3.org/2000/svg" viewBox="0 0 500 100">
  <defs>
    <style>
      .cls-1 {
        fill: #fff;
      }
    </style>
  </defs>
  <g>
    <path class="cls-1" d="M92.319,30.449a13.99,13.99,0,0,0-5.09-10.132A187.255,187.255,0,0,0,52.071,1.042a14.767,14.767,0,0,0-10.9,0A187.863,187.863,0,0,0,6,20.316,13.95,13.95,0,0,0,.915,30.448,234.628,234.628,0,0,0,.929,69.622a14.035,14.035,0,0,0,5.1,10.132A187.192,187.192,0,0,0,41.168,99.028a14.549,14.549,0,0,0,4.02.972l-1.3-32.476a2.853,2.853,0,0,1,2.654-2.846c11.495-.8,20.5-10.114,20.5-21.2A20.3,20.3,0,1,0,29.7,54.523a2.852,2.852,0,1,1-4.783,3.109A26.008,26.008,0,1,1,72.745,43.477c0,13.2-9.974,24.409-23.154,26.582L48.239,99.973a14.475,14.475,0,0,0,3.832-.945,185.463,185.463,0,0,0,35.1-19.278,14.188,14.188,0,0,0,5.112-10.131A220.784,220.784,0,0,0,92.319,30.449ZM53.851,41.524a3.886,3.886,0,1,1-3.886,3.886A3.885,3.885,0,0,1,53.851,41.524Zm-14.225,0A3.886,3.886,0,1,1,35.74,45.41,3.886,3.886,0,0,1,39.626,41.524Z"/>
    <g>
      <path class="cls-1" d="M132.231,77.994v-56.3a3.385,3.385,0,0,1,3.632-3.632h7.629a3.457,3.457,0,0,1,3.724,3.632V77.994a3.457,3.457,0,0,1-3.724,3.633h-7.629A3.385,3.385,0,0,1,132.231,77.994Zm36.054.635L153.391,56.107a11.9,11.9,0,0,1-2.179-6.9,11.559,11.559,0,0,1,2.088-6.628l14.258-21.523c1.362-2,2.723-3,5.176-3h6.175c2.453,0,3.543,1.361,3.543,3.269,0,1.271-.364,2.361-1.726,4.359L165.379,48.207l15.983,22.885c2.633,3.724,1.27,8.174-2.543,10.353A7.841,7.841,0,0,1,168.285,78.629Z"/>
      <path class="cls-1" d="M189.752,69.458V46.209H185.3a2.218,2.218,0,0,1-2.361-2.269V37.764A2.241,2.241,0,0,1,185.3,35.4H200.2c2.815,0,4.268,1.272,4.268,4.269V68.278c0,1.725.546,2.359,2.089,2.359h2.906A2.241,2.241,0,0,1,211.819,73v5.449c0,2.088-1.089,3.178-3.269,3.178H203.1C193.022,81.627,189.752,77.813,189.752,69.458ZM188.3,26.412V22.324c0-2.906,1.543-4.449,4.54-4.449h6.63c3,0,4.54,1.543,4.54,4.449v4.088c0,2.814-1.634,4.359-4.54,4.359h-6.63C189.932,30.771,188.3,29.226,188.3,26.412Z"/>
      <path class="cls-1" d="M221.174,77.449l-7.447-34.872a17.452,17.452,0,0,1-.455-3.633c0-2.27,1.182-3.542,3.543-3.542h5.359c2.633,0,3.9,1.089,4.449,3.815l5.267,27.516,7.084-24.7c1.089-3.9,2.452-5.268,6.085-5.268h2.36c3.542,0,4.995,1.454,6.085,5.268l6.992,24.7,5.269-27.516c.543-2.726,1.906-3.815,4.539-3.815h4.542c2.451,0,3.541,1.272,3.541,3.542a17.452,17.452,0,0,1-.455,3.633l-7.445,34.872c-.636,3.088-2.543,4.359-5.177,4.359h-8.083c-2.723,0-4.268-1.271-5.266-4.632L245.876,56.29l-5.994,20.886c-1,3.361-2.451,4.632-5.267,4.632H226.35C223.717,81.808,221.81,80.537,221.174,77.449Z"/>
      <path class="cls-1" d="M288.018,78.266V49.205l-3-3.086c-2.179-2.179-2.361-5.086-.181-7.175l2.816-2.724c2.179-2.18,4.994-2.088,7.173.091l4.814,4.813c2.18-4,5.629-6.266,10.08-6.266H310.9c4.086,0,6.265,1.906,6.265,5.266v3c0,3.178-2.089,5.086-5.448,5.086h-2c-4.723,0-7.084,2.543-7.084,7.447V78.266a3.1,3.1,0,0,1-3.359,3.361h-7.9A3.1,3.1,0,0,1,288.018,78.266Z"/>
      <path class="cls-1" d="M328.522,69.458V46.209h-4.45a2.217,2.217,0,0,1-2.36-2.269V37.764a2.24,2.24,0,0,1,2.36-2.362h14.893c2.816,0,4.269,1.272,4.269,4.269V68.278c0,1.725.545,2.359,2.09,2.359h2.906A2.241,2.241,0,0,1,350.59,73v5.449c0,2.088-1.09,3.178-3.27,3.178h-5.449C331.792,81.627,328.522,77.813,328.522,69.458Zm-1.453-43.046V22.324c0-2.906,1.545-4.449,4.541-4.449h6.629c3,0,4.542,1.543,4.542,4.449v4.088c0,2.814-1.636,4.359-4.542,4.359H331.61C328.7,30.771,327.069,29.226,327.069,26.412Z"/>
      <path class="cls-1" d="M353.77,63.919V53.111c0-12.169,8.537-18.8,22.614-18.8,14.257,0,22.793,6.63,22.793,18.8V63.919c0,12.259-8.536,18.8-22.7,18.8S353.77,76.178,353.77,63.919Zm30.605,1.18V51.931c0-4.542-2.725-6.993-7.991-6.993-5.177,0-7.812,2.451-7.812,6.993V65.1c0,4.632,2.635,7.083,7.9,7.083C381.65,72.182,384.375,69.731,384.375,65.1Z"/>
      <path class="cls-1" d="M406.262,64.19V38.762a3.194,3.194,0,0,1,3.361-3.36h7.992a3.194,3.194,0,0,1,3.361,3.36V64.009c0,4.812,2.451,7.447,7.173,7.447,4.814,0,7.266-2.543,7.266-7.447V38.762a3.193,3.193,0,0,1,3.36-3.36h7.992a3.194,3.194,0,0,1,3.359,3.36V67.915l3,3c2.179,2.179,2.271,5,.091,7.175L450.49,80.9c-2.18,2.18-5,2-7.175-.181l-4.359-4.359c-2.907,4.177-7.629,6.357-13.8,6.357C413.711,82.717,406.262,76.086,406.262,64.19Z"/>
      <path class="cls-1" d="M458.666,69.458v-.637a1.811,1.811,0,0,1,1.908-1.906h9.173a1.537,1.537,0,0,1,1.724,1.726V69c0,2.815,2.088,4.086,7.72,4.086,4.9,0,7.266-1.453,7.266-4.269v-.816c0-2.18-1-3-3.27-3.27L471.471,63.1c-9.9-1.362-12.985-5.268-12.985-12.986v-.727c0-9.264,6.81-15.076,20.522-15.076,13.8,0,19.979,4.359,19.979,13.169v.454a1.81,1.81,0,0,1-1.906,1.907H488c-1.18,0-1.817-.545-1.817-1.635v-.363c0-2.725-1.906-3.9-7.175-3.9-4.994,0-7.082,1.269-7.082,4.085v.727c0,2.18,1,3,3.36,3.359L487,53.747c9.9,1.362,12.9,5.266,12.9,12.805v1c0,9.262-6.993,15.166-20.706,15.166C465.024,82.717,458.666,78.357,458.666,69.458Z"/>
    </g>
  </g>
</svg>
