<svg id="exn04pnvqmdd1" xmlns="http://www.w3.org/2000/svg" xmlns:xlink="http://www.w3.org/1999/xlink" viewBox="0 0 500 100" shape-rendering="geometricPrecision" text-rendering="geometricPrecision"><style><![CDATA[#exn04pnvqmdd3 {animation: exn04pnvqmdd3_c_o 2700ms linear infinite normal forwards}@keyframes exn04pnvqmdd3_c_o { 0% {opacity: 0} 11.111111% {opacity: 1} 100% {opacity: 1} }#exn04pnvqmdd5 {animation: exn04pnvqmdd5_c_o 2700ms linear infinite normal forwards}@keyframes exn04pnvqmdd5_c_o { 0% {opacity: 0} 11.111111% {opacity: 0} 22.222222% {opacity: 1} 100% {opacity: 1} }#exn04pnvqmdd6 {animation: exn04pnvqmdd6_c_o 2700ms linear infinite normal forwards}@keyframes exn04pnvqmdd6_c_o { 0% {opacity: 0} 22.222222% {opacity: 0} 33.333333% {opacity: 1} 100% {opacity: 1} }#exn04pnvqmdd7 {animation: exn04pnvqmdd7_c_o 2700ms linear infinite normal forwards}@keyframes exn04pnvqmdd7_c_o { 0% {opacity: 0} 33.333333% {opacity: 0} 44.444444% {opacity: 1} 100% {opacity: 1} }#exn04pnvqmdd8 {animation: exn04pnvqmdd8_c_o 2700ms linear infinite normal forwards}@keyframes exn04pnvqmdd8_c_o { 0% {opacity: 0} 44.444444% {opacity: 0} 55.555556% {opacity: 1} 100% {opacity: 1} }#exn04pnvqmdd9 {animation: exn04pnvqmdd9_c_o 2700ms linear infinite normal forwards}@keyframes exn04pnvqmdd9_c_o { 0% {opacity: 0} 55.555556% {opacity: 0} 66.666667% {opacity: 1} 100% {opacity: 1} }#exn04pnvqmdd10 {animation: exn04pnvqmdd10_c_o 2700ms linear infinite normal forwards}@keyframes exn04pnvqmdd10_c_o { 0% {opacity: 0} 66.666667% {opacity: 0} 77.777778% {opacity: 1} 100% {opacity: 1} }#exn04pnvqmdd11 {animation: exn04pnvqmdd11_c_o 2700ms linear infinite normal forwards}@keyframes exn04pnvqmdd11_c_o { 0% {opacity: 0} 77.777778% {opacity: 0} 88.888889% {opacity: 1} 100% {opacity: 1} }#exn04pnvqmdd12 {animation: exn04pnvqmdd12_c_o 2700ms linear infinite normal forwards}@keyframes exn04pnvqmdd12_c_o { 0% {opacity: 0} 88.888889% {opacity: 0} 100% {opacity: 1} }]]></style><defs><radialGradient id="exn04pnvqmdd3-fill" cx="47.238000" cy="118.985000" r="161.986000" spreadMethod="pad" gradientUnits="userSpaceOnUse"><stop id="exn04pnvqmdd3-fill-0" offset="0%" stop-color="rgb(250,188,20)"/><stop id="exn04pnvqmdd3-fill-1" offset="50%" stop-color="rgb(248,87,8)"/><stop id="exn04pnvqmdd3-fill-2" offset="100%" stop-color="rgb(255,0,110)"/></radialGradient></defs><g id="exn04pnvqmdd2"><path id="exn04pnvqmdd3" d="M92.319000,30.449000C92.128351,26.504656,90.279603,22.824593,87.229000,20.317000C76.233284,12.652230,64.446401,6.190196,52.071000,1.042000C48.570610,-0.348005,44.671390,-0.348005,41.171000,1.042000C28.793170,6.193262,17.002331,12.654740,6,20.316000C2.947257,22.821317,1.099436,26.503151,0.915000,30.448000C-0.172343,43.483560,-0.167660,56.587220,0.929000,69.622000C1.127696,73.566472,2.979141,77.244677,6.029000,79.754000C17.018506,87.417646,28.799007,93.879338,41.168000,99.028000C42.454876,99.541779,43.808550,99.869086,45.188000,100L43.888000,67.524000C43.888027,66.025578,45.047228,64.782517,46.542000,64.678000C58.037000,63.878000,67.042000,54.564000,67.042000,43.478000C67.035586,34.819562,61.538067,27.118206,53.351405,24.299138C45.164743,21.480069,36.091108,24.163865,30.755127,30.982654C25.419146,37.801444,24.995455,47.254173,29.700000,54.523000C30.558527,55.843789,30.183789,57.610473,28.863000,58.469000C27.542211,59.327527,25.775527,58.952789,24.917000,57.632000C18.877613,48.320853,19.412128,36.203206,26.247903,27.459989C33.083677,18.716772,44.714428,15.274577,55.207580,18.889189C65.700733,22.503800,72.744090,32.378727,72.745000,43.477000C72.745000,56.677000,62.771000,67.886000,49.591000,70.059000L48.239000,99.973000C49.553488,99.834435,50.842804,99.516480,52.071000,99.028000C64.432499,93.887683,76.201085,87.424014,87.171000,79.750000C90.210084,77.231132,92.062461,73.560077,92.283000,69.619000C93.455477,56.589187,93.467524,43.480946,92.319000,30.449000ZM53.851000,41.524000C55.997179,41.524000,57.737000,43.263821,57.737000,45.410000C57.737000,47.556179,55.997179,49.296000,53.851000,49.296000C51.704821,49.296000,49.965000,47.556179,49.965000,45.410000C49.964735,44.379287,50.374066,43.390714,51.102890,42.661890C51.831714,41.933066,52.820287,41.523735,53.851000,41.524000ZM39.626000,41.524000C41.197740,41.524000,42.614717,42.470794,43.216196,43.922892C43.817675,45.374991,43.485205,47.046429,42.373817,48.157817C41.262429,49.269205,39.590991,49.601675,38.138892,49.000196C36.686794,48.398717,35.740000,46.981740,35.740000,45.410000C35.740000,43.263821,37.479821,41.524000,39.626000,41.524000Z" opacity="0" fill="url(#exn04pnvqmdd3-fill)" stroke="none" stroke-width="1"/><g id="exn04pnvqmdd4"><path id="exn04pnvqmdd5" d="M132.231000,77.994000L132.231000,21.694000C132.156124,20.709682,132.514664,19.741721,133.212692,19.043692C133.910721,18.345664,134.878682,17.987124,135.863000,18.062000L143.492000,18.062000C144.485401,17.983597,145.464317,18.337678,146.177699,19.033436C146.891081,19.729194,147.269533,20.698949,147.216000,21.694000L147.216000,77.994000C147.269833,78.989220,146.891512,79.959250,146.178094,80.655236C145.464675,81.351221,144.485584,81.705433,143.492000,81.627000L135.863000,81.627000C134.878495,81.701913,133.910353,81.343243,133.212286,80.644984C132.514220,79.946725,132.155816,78.978485,132.231000,77.994000ZM168.285000,78.629000L153.391000,56.107000C151.966057,54.088937,151.204507,51.677422,151.212000,49.207000C151.211694,46.835799,151.940645,44.521871,153.300000,42.579000L167.558000,21.056000C168.920000,19.056000,170.281000,18.056000,172.734000,18.056000L178.909000,18.056000C181.362000,18.056000,182.452000,19.417000,182.452000,21.325000C182.452000,22.596000,182.088000,23.686000,180.726000,25.684000L165.379000,48.207000L181.362000,71.092000C183.995000,74.816000,182.632000,79.266000,178.819000,81.445000C175.122864,83.501022,170.462163,82.255100,168.285000,78.629000Z" opacity="0" fill="rgb(18,51,61)" stroke="none" stroke-width="1"/><path id="exn04pnvqmdd6" d="M189.752000,69.458000L189.752000,46.209000L185.300000,46.209000C184.678420,46.249355,184.068518,46.026483,183.619406,45.594871C183.170294,45.163259,182.923369,44.562692,182.939000,43.940000L182.939000,37.764000C182.903023,37.127208,183.140088,36.505255,183.590800,36.053971C184.041511,35.602687,184.663163,35.364831,185.300000,35.400000L200.200000,35.400000C203.015000,35.400000,204.468000,36.672000,204.468000,39.669000L204.468000,68.278000C204.468000,70.003000,205.014000,70.637000,206.557000,70.637000L209.463000,70.637000C210.098809,70.603333,210.718925,70.841709,211.168472,71.292591C211.618018,71.743473,211.854553,72.364293,211.819000,73L211.819000,78.449000C211.819000,80.537000,210.730000,81.627000,208.550000,81.627000L203.100000,81.627000C193.022000,81.627000,189.752000,77.813000,189.752000,69.458000ZM188.300000,26.412000L188.300000,22.324000C188.300000,19.418000,189.843000,17.875000,192.840000,17.875000L199.470000,17.875000C202.470000,17.875000,204.010000,19.418000,204.010000,22.324000L204.010000,26.412000C204.010000,29.226000,202.376000,30.771000,199.470000,30.771000L192.840000,30.771000C189.932000,30.771000,188.300000,29.226000,188.300000,26.412000Z" opacity="0" fill="rgb(18,51,61)" stroke="none" stroke-width="1"/><path id="exn04pnvqmdd7" d="M221.174000,77.449000L213.727000,42.577000C213.448369,41.385303,213.295864,40.167604,213.272000,38.944000C213.272000,36.674000,214.454000,35.402000,216.815000,35.402000L222.174000,35.402000C224.807000,35.402000,226.074000,36.491000,226.623000,39.217000L231.890000,66.733000L238.974000,42.033000C240.063000,38.133000,241.426000,36.765000,245.059000,36.765000L247.419000,36.765000C250.961000,36.765000,252.414000,38.219000,253.504000,42.033000L260.496000,66.733000L265.765000,39.217000C266.308000,36.491000,267.671000,35.402000,270.304000,35.402000L274.846000,35.402000C277.297000,35.402000,278.387000,36.674000,278.387000,38.944000C278.363136,40.167604,278.210631,41.385303,277.932000,42.577000L270.487000,77.449000C269.851000,80.537000,267.944000,81.808000,265.310000,81.808000L257.227000,81.808000C254.504000,81.808000,252.959000,80.537000,251.961000,77.176000L245.876000,56.290000L239.882000,77.176000C238.882000,80.537000,237.431000,81.808000,234.615000,81.808000L226.350000,81.808000C223.717000,81.808000,221.810000,80.537000,221.174000,77.449000Z" opacity="0" fill="rgb(18,51,61)" stroke="none" stroke-width="1"/><path id="exn04pnvqmdd8" d="M288.018000,78.266000L288.018000,49.205000L285.018000,46.119000C282.839000,43.940000,282.657000,41.033000,284.837000,38.944000L287.653000,36.220000C289.832000,34.040000,292.647000,34.132000,294.826000,36.311000L299.640000,41.124000C301.820000,37.124000,305.269000,34.858000,309.720000,34.858000L310.900000,34.858000C314.986000,34.858000,317.165000,36.764000,317.165000,40.124000L317.165000,43.124000C317.165000,46.302000,315.076000,48.210000,311.717000,48.210000L309.717000,48.210000C304.994000,48.210000,302.633000,50.753000,302.633000,55.657000L302.633000,78.266000C302.713713,79.179400,302.385911,80.081669,301.737716,80.730249C301.089521,81.378830,300.187448,81.707170,299.274000,81.627000L291.374000,81.627000C290.461049,81.706226,289.559826,81.377468,288.912328,80.729006C288.264831,80.080544,287.937415,79.178832,288.018000,78.266000Z" opacity="0" fill="rgb(18,51,61)" stroke="none" stroke-width="1"/><path id="exn04pnvqmdd9" d="M328.522000,69.458000L328.522000,46.209000L324.072000,46.209000C323.450507,46.249375,322.840694,46.026476,322.391735,45.594829C321.942776,45.163181,321.696082,44.562599,321.712000,43.940000L321.712000,37.764000C321.676317,37.127642,321.913408,36.506215,322.363897,36.055344C322.814386,35.604473,323.435612,35.366856,324.072000,35.402000L338.965000,35.402000C341.781000,35.402000,343.234000,36.674000,343.234000,39.671000L343.234000,68.278000C343.234000,70.003000,343.779000,70.637000,345.324000,70.637000L348.230000,70.637000C348.866485,70.602153,349.487691,70.840007,349.938141,71.291029C350.388591,71.742052,350.625655,72.363560,350.590000,73L350.590000,78.449000C350.590000,80.537000,349.500000,81.627000,347.320000,81.627000L341.871000,81.627000C331.792000,81.627000,328.522000,77.813000,328.522000,69.458000ZM327.069000,26.412000L327.069000,22.324000C327.069000,19.418000,328.614000,17.875000,331.610000,17.875000L338.239000,17.875000C341.239000,17.875000,342.781000,19.418000,342.781000,22.324000L342.781000,26.412000C342.781000,29.226000,341.145000,30.771000,338.239000,30.771000L331.610000,30.771000C328.700000,30.771000,327.069000,29.226000,327.069000,26.412000Z" opacity="0" fill="rgb(18,51,61)" stroke="none" stroke-width="1"/><path id="exn04pnvqmdd10" d="M353.770000,63.919000L353.770000,53.111000C353.770000,40.942000,362.307000,34.311000,376.384000,34.311000C390.641000,34.311000,399.177000,40.941000,399.177000,53.111000L399.177000,63.919000C399.177000,76.178000,390.641000,82.719000,376.477000,82.719000C362.313000,82.719000,353.770000,76.178000,353.770000,63.919000ZM384.375000,65.099000L384.375000,51.931000C384.375000,47.389000,381.650000,44.938000,376.384000,44.938000C371.207000,44.938000,368.572000,47.389000,368.572000,51.931000L368.572000,65.100000C368.572000,69.732000,371.207000,72.183000,376.472000,72.183000C381.650000,72.182000,384.375000,69.731000,384.375000,65.100000Z" opacity="0" fill="rgb(18,51,61)" stroke="none" stroke-width="1"/><path id="exn04pnvqmdd11" d="M406.262000,64.190000L406.262000,38.762000C406.213574,37.856718,406.552135,36.973505,407.193277,36.332554C407.834419,35.691603,408.717732,35.353305,409.623000,35.402000L417.615000,35.402000C418.520268,35.353305,419.403581,35.691603,420.044723,36.332554C420.685865,36.973505,421.024426,37.856718,420.976000,38.762000L420.976000,64.009000C420.976000,68.821000,423.427000,71.456000,428.149000,71.456000C432.963000,71.456000,435.415000,68.913000,435.415000,64.009000L435.415000,38.762000C435.366278,37.856814,435.704603,36.973583,436.345593,36.332593C436.986583,35.691603,437.869814,35.353278,438.775000,35.402000L446.767000,35.402000C447.671930,35.353894,448.554699,35.692452,449.195389,36.333334C449.836080,36.974215,450.174376,37.857084,450.126000,38.762000L450.126000,67.915000L453.126000,70.915000C455.305000,73.094000,455.397000,75.915000,453.217000,78.090000L450.490000,80.900000C448.310000,83.080000,445.490000,82.900000,443.315000,80.719000L438.956000,76.360000C436.049000,80.537000,431.327000,82.717000,425.156000,82.717000C413.711000,82.717000,406.262000,76.086000,406.262000,64.190000Z" opacity="0" fill="rgb(18,51,61)" stroke="none" stroke-width="1"/><path id="exn04pnvqmdd12" d="M458.666000,69.458000L458.666000,68.821000C458.638225,68.307132,458.830381,67.805714,459.194462,67.442015C459.558542,67.078316,460.060162,66.886686,460.574000,66.915000L469.747000,66.915000C470.220976,66.852686,470.696960,67.014462,471.034800,67.352694C471.372639,67.690925,471.533864,68.167097,471.471000,68.641000L471.471000,69C471.471000,71.815000,473.559000,73.086000,479.191000,73.086000C484.091000,73.086000,486.457000,71.633000,486.457000,68.817000L486.457000,68.001000C486.457000,65.821000,485.457000,65.001000,483.187000,64.731000L471.471000,63.100000C461.571000,61.738000,458.486000,57.832000,458.486000,50.114000L458.486000,49.387000C458.486000,40.123000,465.296000,34.311000,479.008000,34.311000C492.808000,34.311000,498.987000,38.670000,498.987000,47.480000L498.987000,47.934000C499.015341,48.447757,498.823684,48.949295,498.459947,49.313223C498.096209,49.677152,497.594772,49.869072,497.081000,49.841000L488,49.841000C486.820000,49.841000,486.183000,49.296000,486.183000,48.206000L486.183000,47.843000C486.183000,45.118000,484.277000,43.943000,479.008000,43.943000C474.014000,43.943000,471.926000,45.212000,471.926000,48.028000L471.926000,48.755000C471.926000,50.935000,472.926000,51.755000,475.286000,52.114000L487,53.747000C496.900000,55.109000,499.900000,59.013000,499.900000,66.552000L499.900000,67.552000C499.900000,76.814000,492.907000,82.718000,479.194000,82.718000C465.024000,82.717000,458.666000,78.357000,458.666000,69.458000Z" opacity="0" fill="rgb(18,51,61)" stroke="none" stroke-width="1"/></g></g></svg>