<?xml version="1.0" encoding="UTF-8"?>
<svg width="224px" height="242px" viewBox="0 0 224 242" version="1.1" xmlns="http://www.w3.org/2000/svg" xmlns:xlink="http://www.w3.org/1999/xlink">
  <title>Group 8</title>
  <defs>
    <linearGradient x1="75.5801083%" y1="54.616848%" x2="6.91417597%" y2="-13.8721294%" id="linearGradient-1">
      <stop stop-color="#000000" stop-opacity="0.350633741" offset="0%"></stop>
      <stop stop-color="#FFFFFF" offset="100%"></stop>
    </linearGradient>
    <filter x="-18.7%" y="-15.2%" width="137.4%" height="130.3%" filterUnits="objectBoundingBox" id="filter-2">
      <feOffset dx="3" dy="2" in="SourceAlpha" result="shadowOffsetOuter1"></feOffset>
      <feGaussianBlur stdDeviation="3.5" in="shadowOffsetOuter1" result="shadowBlurOuter1"></feGaussianBlur>
      <feColorMatrix values="0 0 0 0 0   0 0 0 0 0   0 0 0 0 0  0 0 0 0.390652316 0" type="matrix" in="shadowBlurOuter1" result="shadowMatrixOuter1"></feColorMatrix>
      <feMerge>
        <feMergeNode in="shadowMatrixOuter1"></feMergeNode>
        <feMergeNode in="SourceGraphic"></feMergeNode>
      </feMerge>
    </filter>
    <linearGradient x1="63.6318815%" y1="96.2100666%" x2="28.3302082%" y2="15.1690627%" id="linearGradient-3">
      <stop stop-color="#1C3A66" offset="0%"></stop>
      <stop stop-color="#173F7A" offset="100%"></stop>
    </linearGradient>
  </defs>
  <g id="Page-1" stroke="none" stroke-width="1" fill="none" fill-rule="evenodd">
    <g id="Landing-Page" transform="translate(-929.000000, -2835.000000)">
      <g id="Group-10" transform="translate(310.000000, 2609.000000)">
        <g id="Group-8" transform="translate(619.000000, 226.000000)">
          <g id="Group-81">
            <path d="M1.95006754,73.4334581 C-0.647468873,105.340452 -0.664916641,136.0046 1.98714405,167.911594 C2.73739806,177.34234 6.81145181,186.7337 14.233296,192.348386 C41.1486586,211.006385 68.1643459,226.067133 98.7175681,238.834745 C107.031429,242.184738 116.612435,242.184738 124.928477,238.834745 C155.472975,226.089014 182.427595,211.017325 209.305882,192.339634 C216.712459,186.72276 220.773427,177.331399 221.595653,167.905029 C224.483259,135.978343 224.372029,105.368897 221.67853,73.4356462 C220.945724,64.0005236 216.87167,54.6091633 209.443283,48.9988538 C182.510472,30.3496077 155.494785,15.269166 124.928477,2.51249523 C116.612435,-0.837498412 107.031429,-0.837498412 98.7175681,2.51249523 C68.155622,15.2844828 41.1137631,30.3517958 14.1744098,48.9966657 C6.74166074,54.6069751 2.66542602,63.9983355 1.95006754,73.4334581" id="Fill-24" fill="#3BA4FF"></path>
            <path d="M1.94882269,74.3156375 C-0.648142573,106.171438 -0.663406013,136.786387 1.98589104,168.642187 C2.73598009,178.057803 6.80913803,187.434095 14.2293503,193.039772 C41.1409752,211.667835 68.1485417,226.704419 98.6950458,239.451546 C107.007079,242.796164 116.588158,242.796164 124.900191,239.451546 C155.440154,226.726265 182.386667,211.678758 209.261223,193.031034 C216.663992,187.423172 220.724067,178.04688 221.546112,168.635634 C224.433083,136.760172 224.321878,106.199838 221.628971,74.3178221 C220.898506,64.8978378 216.823168,55.5215454 209.398594,49.9202375 C182.469526,31.3009132 155.459779,16.2446674 124.900191,3.50846405 C116.588158,0.163845315 107.007079,0.163845315 98.6950458,3.50846405 C68.1398197,16.2599595 41.1039068,31.3030978 14.170477,49.9180529 C6.74154279,55.5193608 2.66402387,64.8956532 1.94882269,74.3156375" id="Fill-6-Copy-6" fill="url(#linearGradient-1)" style="mix-blend-mode: overlay;"></path>
          </g>
<!--          <g id="Group-23" filter="url(#filter-2)" transform="translate(57.000000, 53.000000)">-->
<!--            <path d="M53.1677101,131.285398 C82.4886837,131.285398 106.326696,105.091554 106.326696,72.8847899 C106.326696,41.2753789 57.7673778,2.52179469 55.6976364,0.882901657 L55.7041793,0.882901657 C54.2167571,-0.294300552 52.118663,-0.294300552 50.6290599,0.882901657 C48.5811281,2.52179469 -6.82121053e-15,41.277567 -6.82121053e-15,72.8847899 C0.00872388384,105.091554 23.8467365,131.285398 53.1677101,131.285398" id="Fill-26" fill="url(#linearGradient-3)"></path>-->
<!--            <path d="M53.1671289,123.242701 C78.5814522,123.242701 99.24335,100.641264 99.24335,72.8515592 C99.24335,45.5772828 57.1539489,12.1386348 55.3599744,10.724511 L55.3656456,10.724511 C54.0764036,9.70875849 52.2578542,9.70875849 50.9667219,10.724511 C49.1916512,12.1386348 7.0833463,45.5791708 7.0833463,72.8515592 C7.09090784,100.641264 27.7528056,123.242701 53.1671289,123.242701" id="Fill-26" stroke="#FFFFFF" stroke-width="3.84000015" opacity="0.874023438"></path>-->
<!--          </g>-->
        </g>
      </g>
    </g>
  </g>
</svg>
