<?xml version="1.0" encoding="UTF-8"?>
<svg width="225px" height="243px" viewBox="0 0 225 243" version="1.1" xmlns="http://www.w3.org/2000/svg" xmlns:xlink="http://www.w3.org/1999/xlink">
  <title>A7F184D0-3F45-4094-9627-AD8A847B644C</title>
  <defs>
    <linearGradient x1="75.5801083%" y1="54.616848%" x2="6.91417597%" y2="-13.8721294%" id="linearGradient-1">
      <stop stop-color="#000000" stop-opacity="0.350633741" offset="0%"></stop>
      <stop stop-color="#FFFFFF" offset="100%"></stop>
    </linearGradient>
    <filter x="-12.0%" y="-13.4%" width="124.1%" height="126.8%" filterUnits="objectBoundingBox" id="filter-2">
      <feOffset dx="0" dy="3" in="SourceAlpha" result="shadowOffsetOuter1"></feOffset>
      <feGaussianBlur stdDeviation="3.5" in="shadowOffsetOuter1" result="shadowBlurOuter1"></feGaussianBlur>
      <feColorMatrix values="0 0 0 0 0   0 0 0 0 0   0 0 0 0 0  0 0 0 0.390652316 0" type="matrix" in="shadowBlurOuter1" result="shadowMatrixOuter1"></feColorMatrix>
      <feMerge>
        <feMergeNode in="shadowMatrixOuter1"></feMergeNode>
        <feMergeNode in="SourceGraphic"></feMergeNode>
      </feMerge>
    </filter>
  </defs>
  <g id="Page-1" stroke="none" stroke-width="1" fill="none" fill-rule="evenodd">
    <g id="Landing-Page" transform="translate(-556.000000, -2609.000000)">
      <g id="Group-10" transform="translate(310.000000, 2609.000000)">
        <g id="Group-77" transform="translate(246.000000, 0.000000)">
          <g id="Group-35">
            <path d="M1.95115803,73.4334581 C-0.648559359,105.340452 -0.663826155,136.0046 1.98605356,167.911594 C2.73848854,177.34234 6.81036133,186.7337 14.2322055,192.348386 C41.1497491,211.006385 68.1654364,226.067133 98.7164776,238.834745 C107.03252,242.184738 116.613525,242.184738 124.927387,238.834745 C155.474066,226.089014 182.426505,211.017325 209.306972,192.339634 C216.711369,186.72276 220.772336,177.331399 221.594562,167.905029 C224.482168,135.978343 224.370939,105.368897 221.67962,73.4356462 C220.946814,64.0005236 216.870579,54.6091633 209.444373,48.9988538 C182.509382,30.3496077 155.493695,15.269166 124.927387,2.51249523 C116.613525,-0.837498412 107.03252,-0.837498412 98.7186586,2.51249523 C68.1545315,15.2844828 41.1148536,30.3517958 14.1733193,48.9966657 C6.74275123,54.6069751 2.66433553,63.9983355 1.95115803,73.4334581" id="Fill-14" fill="#FF006E"></path>
            <path d="M2.98589104,167.642187 C3.73598009,177.057803 7.80913803,186.434095 15.2293503,192.039772 C42.1409752,210.667835 69.1485417,225.704419 99.6950458,238.451546 C108.007079,241.796164 117.588158,241.796164 125.900191,238.451546 C156.440154,225.726265 183.386667,210.678758 210.261223,192.031034 C217.663992,186.423172 221.724067,177.04688 222.546112,167.635634 C225.433083,135.760172 225.321878,105.199838 222.628971,73.3178221 C221.898506,63.8978378 217.823168,54.5215454 210.398594,48.9202375 C183.469526,30.3009132 156.459779,15.2446674 125.900191,2.50846405 C117.588158,-0.836154685 108.007079,-0.836154685 99.6950458,2.50846405 C69.1398197,15.2599595 42.1039068,30.3030978 15.170477,48.9180529 C7.74154279,54.5193608 3.66402387,63.8956532 2.94882269,73.3156375 C0.351857427,105.171438 0.336593987,135.786387 2.98589104,167.642187 Z" id="Fill-6-Copy-2" fill="url(#linearGradient-1)" style="mix-blend-mode: overlay;"></path>

          </g>

        </g>
      </g>
    </g>
  </g>
</svg>
