<?xml version="1.0" encoding="UTF-8"?>
<svg width="191px" height="209px" viewBox="0 0 191 209" version="1.1" xmlns="http://www.w3.org/2000/svg" xmlns:xlink="http://www.w3.org/1999/xlink">
  <title>Group 24</title>
  <defs>
    <path d="M26.2115468,73.5533364 C24.5977376,93.780408 24.5868976,113.218205 26.2345819,133.446664 C26.7007031,139.426564 29.2318496,145.378722 33.8429266,148.9367 C50.5650251,160.766111 67.3494537,170.312312 86.331698,178.406192 C91.4969714,180.531269 97.4495019,180.531269 102.61613,178.406192 C121.592955,170.326183 138.339443,160.773046 155.038506,148.931151 C159.640098,145.371786 162.163115,139.419628 162.673951,133.442502 C164.467976,113.201559 164.398871,93.7970535 162.725441,73.5533364 C162.27016,67.5734361 159.739014,61.6198912 155.123872,58.0633001 C138.390933,46.240825 121.606505,36.6793654 102.61613,28.5938078 C97.4495019,26.4687307 91.4969714,26.4687307 86.331698,28.5938078 C67.3440336,36.6904624 50.543345,46.240825 33.8063415,58.061913 C29.1884895,61.6185041 26.655988,67.572049 26.2115468,73.5533364" id="path-1"></path>
    <filter x="-12.2%" y="-9.8%" width="124.5%" height="122.2%" filterUnits="objectBoundingBox" id="filter-2">
      <feMorphology radius="1" operator="dilate" in="SourceAlpha" result="shadowSpreadOuter1"></feMorphology>
      <feOffset dx="0" dy="2" in="shadowSpreadOuter1" result="shadowOffsetOuter1"></feOffset>
      <feMorphology radius="1" operator="erode" in="SourceAlpha" result="shadowInner"></feMorphology>
      <feOffset dx="0" dy="2" in="shadowInner" result="shadowInner"></feOffset>
      <feComposite in="shadowOffsetOuter1" in2="shadowInner" operator="out" result="shadowOffsetOuter1"></feComposite>
      <feGaussianBlur stdDeviation="5" in="shadowOffsetOuter1" result="shadowBlurOuter1"></feGaussianBlur>
      <feColorMatrix values="0 0 0 0 0   0 0 0 0 0   0 0 0 0 0  0 0 0 0.192908654 0" type="matrix" in="shadowBlurOuter1"></feColorMatrix>
    </filter>
  </defs>
  <g id="Page-1" stroke="none" stroke-width="1" fill="none" fill-rule="evenodd">
    <g id="Landing-Page" transform="translate(-766.000000, -3386.000000)">
      <g id="Group-24" transform="translate(767.000000, 3387.000000)">
        <g id="Fill-28" opacity="0.35874721">
          <use fill="black" fill-opacity="1" filter="url(#filter-2)" xlink:href="#path-1"></use>
          <use stroke="#FFFFFF" stroke-width="2" xlink:href="#path-1"></use>
        </g>
        <path d="M15.4033024,68.8558205 C13.5340702,92.2557661 13.5215145,114.742629 15.4299833,138.14418 C15.9698791,145.062103 18.9016388,151.947933 24.2425265,156.064025 C43.611288,169.74903 63.0522449,180.792675 85.0388732,190.156183 C91.0216719,192.614606 97.9163295,192.614606 103.900698,190.156183 C125.881048,180.808722 145.27806,169.757053 164.620141,156.057607 C169.950042,151.939909 172.872385,145.05408 173.464073,138.139365 C175.542044,114.723373 175.462001,92.2750227 173.523713,68.8558205 C172.996373,61.9378966 170.064613,55.0504624 164.719017,50.9359746 C145.3377,37.2589937 125.896743,26.1976972 103.900698,16.8438169 C97.9163295,14.3853944 91.0216719,14.3853944 85.0388732,16.8438169 C63.045967,26.2105349 43.5861766,37.2589937 24.200151,50.9343699 C18.8514159,55.0488577 15.9180868,61.9362919 15.4033024,68.8558205" id="Fill-28" stroke="#FFFFFF" opacity="0.338820685"></path>
        <path d="M1.647355,62.9839257 C-0.546961098,90.3499637 -0.561700417,116.64816 1.67867605,144.016074 C2.31246676,152.106528 5.75409772,160.159447 12.0238355,164.973182 C34.7610772,180.977679 57.5830701,193.893128 83.3934598,204.843672 C90.4167453,207.718776 98.5104737,207.718776 105.535602,204.843672 C131.338622,193.911895 154.109027,180.987063 176.814948,164.965675 C183.071788,160.150063 186.502365,152.097144 187.196955,144.010444 C189.636313,116.625639 189.542349,90.3724841 187.266967,62.9839257 C186.647916,54.8934723 183.206285,46.8386763 176.93102,42.0268178 C154.179039,26.0317044 131.357046,13.095612 105.535602,2.1563282 C98.5104737,-0.718776065 90.4167453,-0.718776065 83.3934598,2.1563282 C57.5757004,13.1106256 34.7315986,26.0317044 11.9740903,42.0249411 C5.69514044,46.8367996 2.25166707,54.8915956 1.647355,62.9839257" id="Fill-28" stroke="#FFFFFF" opacity="0.200288318"></path>
      </g>
    </g>
  </g>
</svg>
