<svg viewBox="0 0 102.583 110.3001" xmlns="http://www.w3.org/2000/svg">
  <defs>
    <style>
      .cls-1 {
      stroke: #FFFFFF;
      stroke-width: 2px;
      fill: white;
      fill-opacity: 0;
      }
      .cls-2 {
      stroke: #FFFFFF;
      stroke-width: 1px;
      fill: white;
      fill-opacity: 0;
      }
      .cls-2 {
      stroke: #FFFFFF;
      stroke-width: 1px;
      fill: white;
      fill-opacity: 0;
      }
    </style>
  </defs>
  <g id="Layer_2" data-name="Layer 2" class="background" transform="matrix(0.954948, 0, 0, 0.951619, 2.248623, 3.111672)" style="">
    <g id="Artwork">
      <g>
        <path class="cls-2" d="M -0.735 32.64 C -1.972 47.536 -1.967 62.511 -0.719 77.406 C -0.363 81.876 1.564 86.325 5.075 88.985 C 17.577 97.743 30.977 105.129 45.047 111.013 C 49.03 112.601 53.464 112.601 57.448 111.013 C 71.506 105.138 84.892 97.752 97.369 88.981 C 100.871 86.32 102.794 81.872 103.182 77.403 C 104.517 62.514 104.529 47.533 103.222 32.641 C 102.876 28.169 100.947 23.721 97.433 21.061 C 84.927 12.303 71.522 4.918 57.448 -0.966 C 53.465 -2.553 49.03 -2.553 45.047 -0.966 C 30.971 4.923 17.561 12.307 5.048 21.06 C 1.532 23.72 -0.398 28.168 -0.735 32.64 Z" style="" opacity="0.21"></path>
        <path class="cls-2" d="M 7.614 36.536 C 6.646 49 6.718 61.532 7.83 73.994 C 8.149 77.735 9.781 81.458 12.732 83.683 C 23.233 91.012 34.478 97.191 46.278 102.114 C 49.619 103.445 53.328 103.445 56.654 102.114 C 68.391 97.199 79.559 91.019 89.959 83.68 C 92.879 81.453 94.467 77.732 94.77 73.991 C 95.82 61.534 95.763 48.998 94.601 36.536 C 94.291 32.794 92.655 29.072 89.704 26.846 C 79.2 19.517 67.95 13.339 56.146 8.415 C 52.806 7.087 49.095 7.087 45.77 8.415 C 34.017 13.342 22.83 19.52 12.399 26.846 C 9.469 29.071 7.875 32.793 7.614 36.536 Z" style="" opacity="0.34"></path>
        <path class="cls-1" d="M 16.818 40.486 C 15.998 50.328 16.001 60.219 16.829 70.059 C 17.066 73.012 18.344 75.951 20.675 77.709 C 28.974 83.495 37.868 88.373 47.207 92.261 C 49.85 93.308 52.796 93.308 55.438 92.261 C 64.771 88.379 73.656 83.499 81.937 77.705 C 84.262 75.949 85.537 73.009 85.797 70.058 C 86.682 60.222 86.69 50.326 85.822 40.487 C 85.592 37.534 84.313 34.594 81.98 32.838 C 73.678 27.052 64.781 22.173 55.438 18.287 C 52.796 17.238 49.85 17.238 47.207 18.287 C 37.864 22.176 28.963 27.054 20.658 32.836 C 18.324 34.593 17.042 37.533 16.818 40.486 Z" style="" opacity="0.34"></path>
      </g>
    </g>
  </g>
</svg>
