<svg id="Group_51" data-name="Group 51" xmlns="http://www.w3.org/2000/svg" xmlns:xlink="http://www.w3.org/1999/xlink" width="2120" height="1101" viewBox="0 0 2120 1101">
  <defs>
    <style>
      .cls-1 {
        fill: url(#linear-gradient);
      }

      .cls-2 {
        opacity: 0.81;
      }

      .cls-3 {
        opacity: 0.299;
      }

      .cls-4 {
        opacity: 0.571;
      }
    </style>
    <linearGradient id="linear-gradient" x1="0.893" y1="0.937" x2="0.398" y2="0.196" gradientUnits="objectBoundingBox">
      <stop offset="0" stop-color="#fcfcfc"/>
      <stop offset="1" stop-color="#f8f8f8"/>
    </linearGradient>
  </defs>
  <path id="Fill_37_Copy_3" data-name="Fill 37 Copy 3" class="cls-1" d="M1.952,73.329a565.683,565.683,0,0,0,.037,94.342c.751,9.419,4.83,18.795,12.261,24.4a450.407,450.407,0,0,0,84.587,46.419,35.545,35.545,0,0,0,26.243,0,446.3,446.3,0,0,0,84.482-46.428c7.413-5.607,11.479-14.982,12.3-24.4a531.909,531.909,0,0,0,.083-94.335c-.732-9.419-4.813-18.8-12.248-24.4A450.691,450.691,0,0,0,125.079,2.511a35.545,35.545,0,0,0-26.243,0A452.294,452.294,0,0,0,14.191,48.928c-7.44,5.6-11.523,14.98-12.239,24.4" transform="translate(258)"/>
  <path id="Fill_37_Copy_5" data-name="Fill 37 Copy 5" class="cls-1" d="M1.952,73.329a565.683,565.683,0,0,0,.037,94.342c.751,9.419,4.83,18.795,12.261,24.4a450.407,450.407,0,0,0,84.587,46.419,35.545,35.545,0,0,0,26.243,0,446.3,446.3,0,0,0,84.482-46.428c7.413-5.607,11.479-14.982,12.3-24.4a531.909,531.909,0,0,0,.083-94.335c-.732-9.419-4.813-18.8-12.248-24.4A450.691,450.691,0,0,0,125.079,2.511a35.545,35.545,0,0,0-26.243,0A452.294,452.294,0,0,0,14.191,48.928c-7.44,5.6-11.523,14.98-12.239,24.4" transform="translate(379 216)"/>
  <path id="Fill_37_Copy_6" data-name="Fill 37 Copy 6" class="cls-1" d="M1.952,73.329a565.683,565.683,0,0,0,.037,94.342c.751,9.419,4.83,18.795,12.261,24.4a450.407,450.407,0,0,0,84.587,46.419,35.545,35.545,0,0,0,26.243,0,446.3,446.3,0,0,0,84.482-46.428c7.413-5.607,11.479-14.982,12.3-24.4a531.909,531.909,0,0,0,.083-94.335c-.732-9.419-4.813-18.8-12.248-24.4A450.691,450.691,0,0,0,125.079,2.511a35.545,35.545,0,0,0-26.243,0A452.294,452.294,0,0,0,14.191,48.928c-7.44,5.6-11.523,14.98-12.239,24.4" transform="translate(130 216)"/>
  <path id="Fill_37_Copy_4" data-name="Fill 37 Copy 4" class="cls-1" d="M1.952,73.329a565.683,565.683,0,0,0,.037,94.342c.751,9.419,4.83,18.795,12.261,24.4a450.407,450.407,0,0,0,84.587,46.419,35.545,35.545,0,0,0,26.243,0,446.3,446.3,0,0,0,84.482-46.428c7.413-5.607,11.479-14.982,12.3-24.4a531.909,531.909,0,0,0,.083-94.335c-.732-9.419-4.813-18.8-12.248-24.4A450.691,450.691,0,0,0,125.079,2.511a35.545,35.545,0,0,0-26.243,0A452.294,452.294,0,0,0,14.191,48.928c-7.44,5.6-11.523,14.98-12.239,24.4" transform="translate(1516)"/>
  <path id="Fill_37_Copy_7" data-name="Fill 37 Copy 7" class="cls-1" d="M1.989,167.671c.751,9.419,4.83,18.795,12.261,24.4a450.407,450.407,0,0,0,84.587,46.419,35.545,35.545,0,0,0,26.243,0,446.3,446.3,0,0,0,84.482-46.428c7.413-5.607,11.479-14.982,12.3-24.4a531.909,531.909,0,0,0,.083-94.335c-.732-9.419-4.813-18.8-12.248-24.4A450.691,450.691,0,0,0,125.079,2.511a35.545,35.545,0,0,0-26.243,0A452.294,452.294,0,0,0,14.191,48.928c-7.44,5.6-11.523,14.98-12.239,24.4A565.683,565.683,0,0,0,1.989,167.671Z" transform="translate(1636 216)"/>
  <path id="Fill_37_Copy_10" data-name="Fill 37 Copy 10" class="cls-1" d="M1.989,167.671c.751,9.419,4.83,18.795,12.261,24.4a450.407,450.407,0,0,0,84.587,46.419,35.545,35.545,0,0,0,26.243,0,446.3,446.3,0,0,0,84.482-46.428c7.413-5.607,11.479-14.982,12.3-24.4a531.909,531.909,0,0,0,.083-94.335c-.732-9.419-4.813-18.8-12.248-24.4A450.691,450.691,0,0,0,125.079,2.511a35.545,35.545,0,0,0-26.243,0A452.294,452.294,0,0,0,14.191,48.928c-7.44,5.6-11.523,14.98-12.239,24.4A565.683,565.683,0,0,0,1.989,167.671Z" transform="translate(1896 216)"/>
  <g id="Group_46" data-name="Group 46" class="cls-2" transform="translate(0 433)">
    <path id="Fill_37_Copy_12" data-name="Fill 37 Copy 12" class="cls-1" d="M1.952,73.329a565.683,565.683,0,0,0,.037,94.342c.751,9.419,4.83,18.795,12.261,24.4a450.407,450.407,0,0,0,84.587,46.419,35.545,35.545,0,0,0,26.243,0,446.3,446.3,0,0,0,84.482-46.428c7.413-5.607,11.479-14.982,12.3-24.4a531.909,531.909,0,0,0,.083-94.335c-.732-9.419-4.813-18.8-12.248-24.4A450.691,450.691,0,0,0,125.079,2.511a35.545,35.545,0,0,0-26.243,0A452.294,452.294,0,0,0,14.191,48.928c-7.44,5.6-11.523,14.98-12.239,24.4" transform="translate(1258)"/>
    <path id="Fill_37_Copy_17" data-name="Fill 37 Copy 17" class="cls-1" d="M1.952,73.329a565.683,565.683,0,0,0,.037,94.342c.751,9.419,4.83,18.795,12.261,24.4a450.407,450.407,0,0,0,84.587,46.419,35.545,35.545,0,0,0,26.243,0,446.3,446.3,0,0,0,84.482-46.428c7.413-5.607,11.479-14.982,12.3-24.4a531.909,531.909,0,0,0,.083-94.335c-.732-9.419-4.813-18.8-12.248-24.4A450.691,450.691,0,0,0,125.079,2.511a35.545,35.545,0,0,0-26.243,0A452.294,452.294,0,0,0,14.191,48.928c-7.44,5.6-11.523,14.98-12.239,24.4" transform="translate(1509)"/>
    <path id="Fill_37_Copy_13" data-name="Fill 37 Copy 13" class="cls-1" d="M1.952,73.329a565.683,565.683,0,0,0,.037,94.342c.751,9.419,4.83,18.795,12.261,24.4a450.407,450.407,0,0,0,84.587,46.419,35.545,35.545,0,0,0,26.243,0,446.3,446.3,0,0,0,84.482-46.428c7.413-5.607,11.479-14.982,12.3-24.4a531.909,531.909,0,0,0,.083-94.335c-.732-9.419-4.813-18.8-12.248-24.4A450.691,450.691,0,0,0,125.079,2.511a35.545,35.545,0,0,0-26.243,0A452.294,452.294,0,0,0,14.191,48.928c-7.44,5.6-11.523,14.98-12.239,24.4" transform="translate(1006)"/>
    <path id="Fill_37_Copy_14" data-name="Fill 37 Copy 14" class="cls-1" d="M1.952,73.329a565.683,565.683,0,0,0,.037,94.342c.751,9.419,4.83,18.795,12.261,24.4a450.407,450.407,0,0,0,84.587,46.419,35.545,35.545,0,0,0,26.243,0,446.3,446.3,0,0,0,84.482-46.428c7.413-5.607,11.479-14.982,12.3-24.4a531.909,531.909,0,0,0,.083-94.335c-.732-9.419-4.813-18.8-12.248-24.4A450.691,450.691,0,0,0,125.079,2.511a35.545,35.545,0,0,0-26.243,0A452.294,452.294,0,0,0,14.191,48.928c-7.44,5.6-11.523,14.98-12.239,24.4" transform="translate(755)"/>
    <path id="Fill_37_Copy_15" data-name="Fill 37 Copy 15" class="cls-1" d="M1.952,73.329a565.683,565.683,0,0,0,.037,94.342c.751,9.419,4.83,18.795,12.261,24.4a450.407,450.407,0,0,0,84.587,46.419,35.545,35.545,0,0,0,26.243,0,446.3,446.3,0,0,0,84.482-46.428c7.413-5.607,11.479-14.982,12.3-24.4a531.909,531.909,0,0,0,.083-94.335c-.732-9.419-4.813-18.8-12.248-24.4A450.691,450.691,0,0,0,125.079,2.511a35.545,35.545,0,0,0-26.243,0A452.294,452.294,0,0,0,14.191,48.928c-7.44,5.6-11.523,14.98-12.239,24.4" transform="translate(503)"/>
    <path id="Fill_37_Copy_16" data-name="Fill 37 Copy 16" class="cls-1" d="M1.952,73.329a565.683,565.683,0,0,0,.037,94.342c.751,9.419,4.83,18.795,12.261,24.4a450.407,450.407,0,0,0,84.587,46.419,35.545,35.545,0,0,0,26.243,0,446.3,446.3,0,0,0,84.482-46.428c7.413-5.607,11.479-14.982,12.3-24.4a531.909,531.909,0,0,0,.083-94.335c-.732-9.419-4.813-18.8-12.248-24.4A450.691,450.691,0,0,0,125.079,2.511a35.545,35.545,0,0,0-26.243,0A452.294,452.294,0,0,0,14.191,48.928c-7.44,5.6-11.523,14.98-12.239,24.4" transform="translate(252)"/>
    <path id="Fill_37_Copy_18" data-name="Fill 37 Copy 18" class="cls-1" d="M1.952,73.329a565.683,565.683,0,0,0,.037,94.342c.751,9.419,4.83,18.795,12.261,24.4a450.407,450.407,0,0,0,84.587,46.419,35.545,35.545,0,0,0,26.243,0,446.3,446.3,0,0,0,84.482-46.428c7.413-5.607,11.479-14.982,12.3-24.4a531.909,531.909,0,0,0,.083-94.335c-.732-9.419-4.813-18.8-12.248-24.4A450.691,450.691,0,0,0,125.079,2.511a35.545,35.545,0,0,0-26.243,0A452.294,452.294,0,0,0,14.191,48.928c-7.44,5.6-11.523,14.98-12.239,24.4" transform="translate(503)"/>
    <path id="Fill_37_Copy_20" data-name="Fill 37 Copy 20" class="cls-1" d="M1.952,73.329a565.683,565.683,0,0,0,.037,94.342c.751,9.419,4.83,18.795,12.261,24.4a450.407,450.407,0,0,0,84.587,46.419,35.545,35.545,0,0,0,26.243,0,446.3,446.3,0,0,0,84.482-46.428c7.413-5.607,11.479-14.982,12.3-24.4a531.909,531.909,0,0,0,.083-94.335c-.732-9.419-4.813-18.8-12.248-24.4A450.691,450.691,0,0,0,125.079,2.511a35.545,35.545,0,0,0-26.243,0A452.294,452.294,0,0,0,14.191,48.928c-7.44,5.6-11.523,14.98-12.239,24.4" transform="translate(1761)"/>
    <path id="Fill_37_Copy_19" data-name="Fill 37 Copy 19" class="cls-1" d="M1.952,73.329a565.683,565.683,0,0,0,.037,94.342c.751,9.419,4.83,18.795,12.261,24.4a450.407,450.407,0,0,0,84.587,46.419,35.545,35.545,0,0,0,26.243,0,446.3,446.3,0,0,0,84.482-46.428c7.413-5.607,11.479-14.982,12.3-24.4a531.909,531.909,0,0,0,.083-94.335c-.732-9.419-4.813-18.8-12.248-24.4A450.691,450.691,0,0,0,125.079,2.511a35.545,35.545,0,0,0-26.243,0A452.294,452.294,0,0,0,14.191,48.928c-7.44,5.6-11.523,14.98-12.239,24.4" transform="translate(755)"/>
    <path id="Fill_37_Copy_22" data-name="Fill 37 Copy 22" class="cls-1" d="M1.952,73.329a565.683,565.683,0,0,0,.037,94.342c.751,9.419,4.83,18.795,12.261,24.4a450.407,450.407,0,0,0,84.587,46.419,35.545,35.545,0,0,0,26.243,0,446.3,446.3,0,0,0,84.482-46.428c7.413-5.607,11.479-14.982,12.3-24.4a531.909,531.909,0,0,0,.083-94.335c-.732-9.419-4.813-18.8-12.248-24.4A450.691,450.691,0,0,0,125.079,2.511a35.545,35.545,0,0,0-26.243,0A452.294,452.294,0,0,0,14.191,48.928c-7.44,5.6-11.523,14.98-12.239,24.4"/>
  </g>
  <g id="Group_46_Copy_2" data-name="Group 46 Copy 2" class="cls-3" transform="translate(0 860)">
    <path id="Fill_37_Copy_12-2" data-name="Fill 37 Copy 12" class="cls-1" d="M1.952,73.329a565.683,565.683,0,0,0,.037,94.342c.751,9.419,4.83,18.795,12.261,24.4a450.407,450.407,0,0,0,84.587,46.419,35.545,35.545,0,0,0,26.243,0,446.3,446.3,0,0,0,84.482-46.428c7.413-5.607,11.479-14.982,12.3-24.4a531.909,531.909,0,0,0,.083-94.335c-.732-9.419-4.813-18.8-12.248-24.4A450.691,450.691,0,0,0,125.079,2.511a35.545,35.545,0,0,0-26.243,0A452.294,452.294,0,0,0,14.191,48.928c-7.44,5.6-11.523,14.98-12.239,24.4" transform="translate(1258)"/>
    <path id="Fill_37_Copy_17-2" data-name="Fill 37 Copy 17" class="cls-1" d="M1.952,73.329a565.683,565.683,0,0,0,.037,94.342c.751,9.419,4.83,18.795,12.261,24.4a450.407,450.407,0,0,0,84.587,46.419,35.545,35.545,0,0,0,26.243,0,446.3,446.3,0,0,0,84.482-46.428c7.413-5.607,11.479-14.982,12.3-24.4a531.909,531.909,0,0,0,.083-94.335c-.732-9.419-4.813-18.8-12.248-24.4A450.691,450.691,0,0,0,125.079,2.511a35.545,35.545,0,0,0-26.243,0A452.294,452.294,0,0,0,14.191,48.928c-7.44,5.6-11.523,14.98-12.239,24.4" transform="translate(1509)"/>
    <path id="Fill_37_Copy_13-2" data-name="Fill 37 Copy 13" class="cls-1" d="M1.952,73.329a565.683,565.683,0,0,0,.037,94.342c.751,9.419,4.83,18.795,12.261,24.4a450.407,450.407,0,0,0,84.587,46.419,35.545,35.545,0,0,0,26.243,0,446.3,446.3,0,0,0,84.482-46.428c7.413-5.607,11.479-14.982,12.3-24.4a531.909,531.909,0,0,0,.083-94.335c-.732-9.419-4.813-18.8-12.248-24.4A450.691,450.691,0,0,0,125.079,2.511a35.545,35.545,0,0,0-26.243,0A452.294,452.294,0,0,0,14.191,48.928c-7.44,5.6-11.523,14.98-12.239,24.4" transform="translate(1006)"/>
    <path id="Fill_37_Copy_14-2" data-name="Fill 37 Copy 14" class="cls-1" d="M1.952,73.329a565.683,565.683,0,0,0,.037,94.342c.751,9.419,4.83,18.795,12.261,24.4a450.407,450.407,0,0,0,84.587,46.419,35.545,35.545,0,0,0,26.243,0,446.3,446.3,0,0,0,84.482-46.428c7.413-5.607,11.479-14.982,12.3-24.4a531.909,531.909,0,0,0,.083-94.335c-.732-9.419-4.813-18.8-12.248-24.4A450.691,450.691,0,0,0,125.079,2.511a35.545,35.545,0,0,0-26.243,0A452.294,452.294,0,0,0,14.191,48.928c-7.44,5.6-11.523,14.98-12.239,24.4" transform="translate(755)"/>
    <path id="Fill_37_Copy_15-2" data-name="Fill 37 Copy 15" class="cls-1" d="M1.952,73.329a565.683,565.683,0,0,0,.037,94.342c.751,9.419,4.83,18.795,12.261,24.4a450.407,450.407,0,0,0,84.587,46.419,35.545,35.545,0,0,0,26.243,0,446.3,446.3,0,0,0,84.482-46.428c7.413-5.607,11.479-14.982,12.3-24.4a531.909,531.909,0,0,0,.083-94.335c-.732-9.419-4.813-18.8-12.248-24.4A450.691,450.691,0,0,0,125.079,2.511a35.545,35.545,0,0,0-26.243,0A452.294,452.294,0,0,0,14.191,48.928c-7.44,5.6-11.523,14.98-12.239,24.4" transform="translate(503)"/>
    <path id="Fill_37_Copy_16-2" data-name="Fill 37 Copy 16" class="cls-1" d="M1.952,73.329a565.683,565.683,0,0,0,.037,94.342c.751,9.419,4.83,18.795,12.261,24.4a450.407,450.407,0,0,0,84.587,46.419,35.545,35.545,0,0,0,26.243,0,446.3,446.3,0,0,0,84.482-46.428c7.413-5.607,11.479-14.982,12.3-24.4a531.909,531.909,0,0,0,.083-94.335c-.732-9.419-4.813-18.8-12.248-24.4A450.691,450.691,0,0,0,125.079,2.511a35.545,35.545,0,0,0-26.243,0A452.294,452.294,0,0,0,14.191,48.928c-7.44,5.6-11.523,14.98-12.239,24.4" transform="translate(252)"/>
    <path id="Fill_37_Copy_23" data-name="Fill 37 Copy 23" class="cls-1" d="M1.952,73.329a565.683,565.683,0,0,0,.037,94.342c.751,9.419,4.83,18.795,12.261,24.4a450.407,450.407,0,0,0,84.587,46.419,35.545,35.545,0,0,0,26.243,0,446.3,446.3,0,0,0,84.482-46.428c7.413-5.607,11.479-14.982,12.3-24.4a531.909,531.909,0,0,0,.083-94.335c-.732-9.419-4.813-18.8-12.248-24.4A450.691,450.691,0,0,0,125.079,2.511a35.545,35.545,0,0,0-26.243,0A452.294,452.294,0,0,0,14.191,48.928c-7.44,5.6-11.523,14.98-12.239,24.4"/>
    <path id="Fill_37_Copy_18-2" data-name="Fill 37 Copy 18" class="cls-1" d="M1.952,73.329a565.683,565.683,0,0,0,.037,94.342c.751,9.419,4.83,18.795,12.261,24.4a450.407,450.407,0,0,0,84.587,46.419,35.545,35.545,0,0,0,26.243,0,446.3,446.3,0,0,0,84.482-46.428c7.413-5.607,11.479-14.982,12.3-24.4a531.909,531.909,0,0,0,.083-94.335c-.732-9.419-4.813-18.8-12.248-24.4A450.691,450.691,0,0,0,125.079,2.511a35.545,35.545,0,0,0-26.243,0A452.294,452.294,0,0,0,14.191,48.928c-7.44,5.6-11.523,14.98-12.239,24.4" transform="translate(503)"/>
    <path id="Fill_37_Copy_20-2" data-name="Fill 37 Copy 20" class="cls-1" d="M1.952,73.329a565.683,565.683,0,0,0,.037,94.342c.751,9.419,4.83,18.795,12.261,24.4a450.407,450.407,0,0,0,84.587,46.419,35.545,35.545,0,0,0,26.243,0,446.3,446.3,0,0,0,84.482-46.428c7.413-5.607,11.479-14.982,12.3-24.4a531.909,531.909,0,0,0,.083-94.335c-.732-9.419-4.813-18.8-12.248-24.4A450.691,450.691,0,0,0,125.079,2.511a35.545,35.545,0,0,0-26.243,0A452.294,452.294,0,0,0,14.191,48.928c-7.44,5.6-11.523,14.98-12.239,24.4" transform="translate(1761)"/>
    <path id="Fill_37_Copy_19-2" data-name="Fill 37 Copy 19" class="cls-1" d="M1.952,73.329a565.683,565.683,0,0,0,.037,94.342c.751,9.419,4.83,18.795,12.261,24.4a450.407,450.407,0,0,0,84.587,46.419,35.545,35.545,0,0,0,26.243,0,446.3,446.3,0,0,0,84.482-46.428c7.413-5.607,11.479-14.982,12.3-24.4a531.909,531.909,0,0,0,.083-94.335c-.732-9.419-4.813-18.8-12.248-24.4A450.691,450.691,0,0,0,125.079,2.511a35.545,35.545,0,0,0-26.243,0A452.294,452.294,0,0,0,14.191,48.928c-7.44,5.6-11.523,14.98-12.239,24.4" transform="translate(755)"/>
  </g>
  <g id="Group_46_Copy" data-name="Group 46 Copy" class="cls-4" transform="translate(128 649)">
    <path id="Fill_37_Copy_12-3" data-name="Fill 37 Copy 12" class="cls-1" d="M1.952,73.329a565.683,565.683,0,0,0,.037,94.342c.751,9.419,4.83,18.795,12.261,24.4a450.407,450.407,0,0,0,84.587,46.419,35.545,35.545,0,0,0,26.243,0,446.3,446.3,0,0,0,84.482-46.428c7.413-5.607,11.479-14.982,12.3-24.4a531.909,531.909,0,0,0,.083-94.335c-.732-9.419-4.813-18.8-12.248-24.4A450.691,450.691,0,0,0,125.079,2.511a35.545,35.545,0,0,0-26.243,0A452.294,452.294,0,0,0,14.191,48.928c-7.44,5.6-11.523,14.98-12.239,24.4" transform="translate(1257)"/>
    <path id="Fill_37_Copy_17-3" data-name="Fill 37 Copy 17" class="cls-1" d="M1.952,73.329a565.683,565.683,0,0,0,.037,94.342c.751,9.419,4.83,18.795,12.261,24.4a450.407,450.407,0,0,0,84.587,46.419,35.545,35.545,0,0,0,26.243,0,446.3,446.3,0,0,0,84.482-46.428c7.413-5.607,11.479-14.982,12.3-24.4a531.909,531.909,0,0,0,.083-94.335c-.732-9.419-4.813-18.8-12.248-24.4A450.691,450.691,0,0,0,125.079,2.511a35.545,35.545,0,0,0-26.243,0A452.294,452.294,0,0,0,14.191,48.928c-7.44,5.6-11.523,14.98-12.239,24.4" transform="translate(1508)"/>
    <path id="Fill_37_Copy_21" data-name="Fill 37 Copy 21" class="cls-1" d="M1.952,73.329a565.683,565.683,0,0,0,.037,94.342c.751,9.419,4.83,18.795,12.261,24.4a450.407,450.407,0,0,0,84.587,46.419,35.545,35.545,0,0,0,26.243,0,446.3,446.3,0,0,0,84.482-46.428c7.413-5.607,11.479-14.982,12.3-24.4a531.909,531.909,0,0,0,.083-94.335c-.732-9.419-4.813-18.8-12.248-24.4A450.691,450.691,0,0,0,125.079,2.511a35.545,35.545,0,0,0-26.243,0A452.294,452.294,0,0,0,14.191,48.928c-7.44,5.6-11.523,14.98-12.239,24.4"/>
    <path id="Fill_37_Copy_13-3" data-name="Fill 37 Copy 13" class="cls-1" d="M1.952,73.329a565.683,565.683,0,0,0,.037,94.342c.751,9.419,4.83,18.795,12.261,24.4a450.407,450.407,0,0,0,84.587,46.419,35.545,35.545,0,0,0,26.243,0,446.3,446.3,0,0,0,84.482-46.428c7.413-5.607,11.479-14.982,12.3-24.4a531.909,531.909,0,0,0,.083-94.335c-.732-9.419-4.813-18.8-12.248-24.4A450.691,450.691,0,0,0,125.079,2.511a35.545,35.545,0,0,0-26.243,0A452.294,452.294,0,0,0,14.191,48.928c-7.44,5.6-11.523,14.98-12.239,24.4" transform="translate(1005)"/>
    <path id="Fill_37_Copy_14-3" data-name="Fill 37 Copy 14" class="cls-1" d="M1.952,73.329a565.683,565.683,0,0,0,.037,94.342c.751,9.419,4.83,18.795,12.261,24.4a450.407,450.407,0,0,0,84.587,46.419,35.545,35.545,0,0,0,26.243,0,446.3,446.3,0,0,0,84.482-46.428c7.413-5.607,11.479-14.982,12.3-24.4a531.909,531.909,0,0,0,.083-94.335c-.732-9.419-4.813-18.8-12.248-24.4A450.691,450.691,0,0,0,125.079,2.511a35.545,35.545,0,0,0-26.243,0A452.294,452.294,0,0,0,14.191,48.928c-7.44,5.6-11.523,14.98-12.239,24.4" transform="translate(754)"/>
    <path id="Fill_37_Copy_15-3" data-name="Fill 37 Copy 15" class="cls-1" d="M1.952,73.329a565.683,565.683,0,0,0,.037,94.342c.751,9.419,4.83,18.795,12.261,24.4a450.407,450.407,0,0,0,84.587,46.419,35.545,35.545,0,0,0,26.243,0,446.3,446.3,0,0,0,84.482-46.428c7.413-5.607,11.479-14.982,12.3-24.4a531.909,531.909,0,0,0,.083-94.335c-.732-9.419-4.813-18.8-12.248-24.4A450.691,450.691,0,0,0,125.079,2.511a35.545,35.545,0,0,0-26.243,0A452.294,452.294,0,0,0,14.191,48.928c-7.44,5.6-11.523,14.98-12.239,24.4" transform="translate(502)"/>
    <path id="Fill_37_Copy_16-3" data-name="Fill 37 Copy 16" class="cls-1" d="M1.952,73.329a565.683,565.683,0,0,0,.037,94.342c.751,9.419,4.83,18.795,12.261,24.4a450.407,450.407,0,0,0,84.587,46.419,35.545,35.545,0,0,0,26.243,0,446.3,446.3,0,0,0,84.482-46.428c7.413-5.607,11.479-14.982,12.3-24.4a531.909,531.909,0,0,0,.083-94.335c-.732-9.419-4.813-18.8-12.248-24.4A450.691,450.691,0,0,0,125.079,2.511a35.545,35.545,0,0,0-26.243,0A452.294,452.294,0,0,0,14.191,48.928c-7.44,5.6-11.523,14.98-12.239,24.4" transform="translate(251)"/>
    <path id="Fill_37_Copy_18-3" data-name="Fill 37 Copy 18" class="cls-1" d="M1.952,73.329a565.683,565.683,0,0,0,.037,94.342c.751,9.419,4.83,18.795,12.261,24.4a450.407,450.407,0,0,0,84.587,46.419,35.545,35.545,0,0,0,26.243,0,446.3,446.3,0,0,0,84.482-46.428c7.413-5.607,11.479-14.982,12.3-24.4a531.909,531.909,0,0,0,.083-94.335c-.732-9.419-4.813-18.8-12.248-24.4A450.691,450.691,0,0,0,125.079,2.511a35.545,35.545,0,0,0-26.243,0A452.294,452.294,0,0,0,14.191,48.928c-7.44,5.6-11.523,14.98-12.239,24.4" transform="translate(502)"/>
    <path id="Fill_37_Copy_20-3" data-name="Fill 37 Copy 20" class="cls-1" d="M1.952,73.329a565.683,565.683,0,0,0,.037,94.342c.751,9.419,4.83,18.795,12.261,24.4a450.407,450.407,0,0,0,84.587,46.419,35.545,35.545,0,0,0,26.243,0,446.3,446.3,0,0,0,84.482-46.428c7.413-5.607,11.479-14.982,12.3-24.4a531.909,531.909,0,0,0,.083-94.335c-.732-9.419-4.813-18.8-12.248-24.4A450.691,450.691,0,0,0,125.079,2.511a35.545,35.545,0,0,0-26.243,0A452.294,452.294,0,0,0,14.191,48.928c-7.44,5.6-11.523,14.98-12.239,24.4" transform="translate(1760)"/>
    <path id="Fill_37_Copy_19-3" data-name="Fill 37 Copy 19" class="cls-1" d="M1.952,73.329a565.683,565.683,0,0,0,.037,94.342c.751,9.419,4.83,18.795,12.261,24.4a450.407,450.407,0,0,0,84.587,46.419,35.545,35.545,0,0,0,26.243,0,446.3,446.3,0,0,0,84.482-46.428c7.413-5.607,11.479-14.982,12.3-24.4a531.909,531.909,0,0,0,.083-94.335c-.732-9.419-4.813-18.8-12.248-24.4A450.691,450.691,0,0,0,125.079,2.511a35.545,35.545,0,0,0-26.243,0A452.294,452.294,0,0,0,14.191,48.928c-7.44,5.6-11.523,14.98-12.239,24.4" transform="translate(754)"/>
  </g>
  <path id="Fill_37_Copy_8" data-name="Fill 37 Copy 8" class="cls-1" d="M1.952,73.329a565.683,565.683,0,0,0,.037,94.342c.751,9.419,4.83,18.795,12.261,24.4a450.407,450.407,0,0,0,84.587,46.419,35.545,35.545,0,0,0,26.243,0,446.3,446.3,0,0,0,84.482-46.428c7.413-5.607,11.479-14.982,12.3-24.4a531.909,531.909,0,0,0,.083-94.335c-.732-9.419-4.813-18.8-12.248-24.4A450.691,450.691,0,0,0,125.079,2.511a35.545,35.545,0,0,0-26.243,0A452.294,452.294,0,0,0,14.191,48.928c-7.44,5.6-11.523,14.98-12.239,24.4" transform="translate(1770)"/>
  <path id="Fill_37_Copy_9" data-name="Fill 37 Copy 9" class="cls-1" d="M1.952,73.329a565.683,565.683,0,0,0,.037,94.342c.751,9.419,4.83,18.795,12.261,24.4a450.407,450.407,0,0,0,84.587,46.419,35.545,35.545,0,0,0,26.243,0,446.3,446.3,0,0,0,84.482-46.428c7.413-5.607,11.479-14.982,12.3-24.4a531.909,531.909,0,0,0,.083-94.335c-.732-9.419-4.813-18.8-12.248-24.4A450.691,450.691,0,0,0,125.079,2.511a35.545,35.545,0,0,0-26.243,0A452.294,452.294,0,0,0,14.191,48.928c-7.44,5.6-11.523,14.98-12.239,24.4" transform="translate(4)"/>
</svg>
