<?xml version="1.0" encoding="UTF-8"?>
<svg width="115px" height="125px" viewBox="0 0 115 125" version="1.1" xmlns="http://www.w3.org/2000/svg" xmlns:xlink="http://www.w3.org/1999/xlink">
    <title>Fill 28</title>
    <g id="Page-1" stroke="none" stroke-width="1" fill="none" fill-rule="evenodd">
        <path d="M1.02141664,86.9662285 C1.4070565,91.8517679 3.50117057,96.7146419 7.31609037,99.6214869 C21.15092,109.286038 35.0373178,117.085222 50.7420523,123.697869 C55.0154799,125.434044 59.9402353,125.434044 64.214784,123.697869 C79.9150344,117.096555 93.7700428,109.291704 107.585815,99.6169538 C111.392887,96.7089755 113.480275,91.8461015 113.902909,86.9628286 C115.387174,70.4261106 115.330001,54.5727561 113.945509,38.0337715 C113.568838,33.1482321 111.474724,28.2842248 107.656441,25.3785131 C93.8126426,15.7196283 79.9262448,7.90797824 64.214784,1.30213055 C59.9402353,-0.434043518 55.0154799,-0.434043518 50.7420523,1.30213055 C35.0328336,7.91704442 21.1329833,15.7196283 7.28582213,25.3773799 C3.46529709,28.2830916 1.37006197,33.1470988 1.00235886,38.0337715 C-0.332807018,54.5591568 -0.341775386,70.4397099 1.02141664,86.9662285 Z" id="Fill-28" fill="#000000"></path>
    </g>
</svg>