<svg width="297" height="391" viewBox="0 0 297 391" fill="none" xmlns="http://www.w3.org/2000/svg">
  <g filter="url(#filter0_d)">
    <path fill-rule="evenodd" clip-rule="evenodd" d="M143.2 28C141.723 28 140.204 27.5015 139.028 26.6347C137.755 25.694 137.139 24.5555 136.797 23.6196C136.743 23.4974 136.698 23.3703 136.661 23.2385C136.659 23.232 136.641 23.1661 136.632 23.1339C136.171 21.4808 135.435 19.7489 134.507 18.1199C134.507 18.1199 133.871 17.1326 133.826 17.0554L133.301 16.195C133.113 15.8766 132.96 15.5422 132.836 15.1836C131.652 13.286 131.722 11.0556 133.068 9.21594C134.098 7.80726 135.745 7 137.585 7C138.434 7 139.274 7.17367 140.049 7.50494C141.988 7.94877 143.54 9.17092 144.335 9.90581C145.315 10.8128 146.33 11.7519 147.133 12.9692C148.76 15.4344 149.69 17.9688 149.966 20.7138C150.32 24.2146 147.846 27.3117 144.211 27.918C143.881 27.9711 143.543 28 143.2 28Z" fill="white"/>
    <path fill-rule="evenodd" clip-rule="evenodd" d="M137.681 4C134.858 4 132.218 5.36725 130.623 7.6586C128.65 10.4949 128.482 14.0254 130.087 16.9979C130.251 17.4444 130.45 17.8695 130.678 18.2782C130.788 18.4719 130.9 18.6639 131.012 18.8543L131.197 19.1728C131.27 19.3008 131.345 19.4239 131.425 19.5453C131.511 19.6898 131.597 19.8326 131.682 19.9737L131.894 20.325C132.649 21.7382 133.24 23.222 133.613 24.6254V24.627C133.618 24.6467 133.626 24.6795 133.628 24.6812C133.7 24.9553 133.788 25.2212 133.892 25.4772C134.562 27.3172 135.614 28.7796 137.092 29.9237C138.795 31.2433 140.995 32 143.133 32C143.653 32 144.171 31.954 144.673 31.8671C149.902 30.9528 153.463 26.2651 152.951 20.9635C152.637 17.684 151.545 14.5375 149.707 11.6159C148.719 10.0451 147.536 8.8929 146.584 7.96717L146.503 7.88839C145.309 6.72466 143.462 5.30817 141.109 4.67296C140.022 4.23143 138.857 4 137.681 4ZM137.681 10.5654C138.142 10.5654 138.609 10.6951 139.012 10.9331C140.117 11.0825 141.218 11.8753 141.973 12.6089C142.758 13.3738 143.611 14.1879 144.2 15.1284C145.455 17.1227 146.237 19.2351 146.466 21.597C146.646 23.4863 145.405 25.0751 143.557 25.3984C143.42 25.4231 143.28 25.4346 143.133 25.4346C142.405 25.4346 141.614 25.1457 141.068 24.7222C140.379 24.1871 140.066 23.5076 139.853 22.7115C139.872 22.787 139.892 22.8625 139.911 22.938C139.377 20.9175 138.548 18.9003 137.55 17.0587C137.249 16.5531 136.941 16.0558 136.647 15.5437C136.594 15.4469 136.538 15.35 136.485 15.2515C136.538 15.35 136.592 15.4485 136.647 15.5437C136.718 15.6684 136.788 15.7948 136.858 15.9179C136.693 15.6258 136.515 15.3385 136.353 15.0447C136.214 14.7985 136.126 14.5261 136.066 14.2487C135.429 13.4099 135.297 12.3808 135.96 11.4272C136.375 10.8313 137.021 10.5654 137.681 10.5654Z" fill="white"/>
    <path fill-rule="evenodd" clip-rule="evenodd" d="M95.0818 64.1147C92.943 65.421 91.1713 67.2494 90.1338 69.3056C89.4225 70.716 89.2659 72.0402 89.4519 73.5742C91.1567 70.3288 93.036 67.1713 95.0818 64.1147ZM79.0044 105.1C78.3552 106.273 77.8494 107.503 77.4758 108.793C76.9114 110.755 76.696 112.808 76.838 114.893C76.9326 116.25 77.3176 117.634 77.7809 119.077C77.8608 114.404 78.2703 109.735 79.0044 105.1ZM77.7646 135.415C77.2784 136.522 76.6928 137.64 76.006 138.779C75.4562 139.69 74.833 140.61 74.1967 141.546C72.5066 144.035 70.7594 146.61 70.717 148.955C70.6697 151.566 72.5001 154.382 74.2685 157.105C74.7416 157.833 75.2082 158.553 75.6422 159.262C76.3632 160.45 77.1055 161.756 77.7646 163.172V135.415ZM77.7646 180.233C76.9146 181.952 75.9048 183.571 74.9129 185.162C74.2995 186.146 73.6861 187.125 73.1314 188.114C72.642 188.983 71.8247 190.437 71.8851 191.26C71.9209 191.75 73.089 192.632 73.9422 193.274C75.4611 194.423 76.7336 195.605 77.7646 196.824V180.233ZM77.763 214.17C77.3649 214.789 76.9538 215.393 76.5476 215.992C75.4643 217.589 74.4414 219.095 73.8052 220.639C72.8296 223.008 74.0091 225.399 76.0679 229.053L76.236 229.352C76.7433 230.253 77.2637 231.179 77.763 232.134V214.17ZM60.8895 293.009C70.8279 290.433 77.7401 281.565 77.7646 271.306C77.763 271.271 77.763 250.604 77.763 250.604C77.5052 250.996 77.2295 251.389 76.9326 251.79C76.6014 252.239 76.218 252.705 75.82 253.187C75.0956 254.065 74.1021 255.269 73.9944 255.926C74.0434 256.12 74.5687 256.972 74.8803 257.48C75.4382 258.388 76.0712 259.414 76.4122 260.606C77.0631 262.876 77.019 265.283 76.2866 267.388C74.8885 271.405 71.5278 274.079 68.4265 276.168C67.1834 277.004 65.8913 277.772 64.6417 278.514C63.0446 279.462 61.5372 280.358 60.2108 281.339C58.6202 282.517 58.1471 283.156 58.0688 283.273C57.904 283.516 57.847 283.626 57.8274 283.665C57.8372 283.667 57.8323 283.807 57.8665 284.132C58.0231 285.694 57.5093 287.213 56.4179 288.415C55.1535 289.806 53.2334 290.639 51.2773 290.639C50.1337 290.639 49.0309 290.348 48.088 289.801C45.8823 288.52 43.2982 287.841 40.6113 287.841C39.5199 287.841 38.4187 287.955 37.3371 288.176C34.1624 288.83 31.3157 290.376 28.464 293.009H60.8895ZM204.775 360C202.974 360 201.512 358.542 201.512 356.747C201.512 345.049 192.345 335.218 180.643 334.364C180.457 334.35 180.275 334.32 180.097 334.276H178.976C166.553 334.276 156.443 344.356 156.443 356.747C156.443 358.542 154.983 360 153.18 360H128.894C128.007 360 127.157 359.639 126.542 359.001C125.926 358.365 125.599 357.505 125.634 356.621L125.661 356.138C125.669 356.011 125.68 355.884 125.68 355.756C125.68 348.642 122.352 342.077 116.686 337.841C106.736 343.372 95.028 346.173 81.848 346.173C43.3325 346.173 12 323.782 12 296.263C12 294.467 13.4617 293.009 15.2628 293.009H18.3885C18.351 292.952 18.3135 292.896 18.2776 292.839C17.1992 291.104 17.0785 289.013 17.9562 287.243C21.5273 280.039 30.1019 275.566 40.3307 275.566C42.693 275.566 45.0536 275.826 47.2853 276.321C49.8107 272.722 53.7016 270.442 57.1879 268.395C59.2646 267.178 61.2239 266.03 62.764 264.719C63.0299 264.494 63.5111 264.019 63.7004 263.821C63.7118 263.805 63.7232 263.787 63.7363 263.77C63.5503 263.404 63.2697 262.92 63.1114 262.645L62.9842 262.424C60.9613 258.898 60.4735 255.622 61.4964 252.404C62.3055 249.857 63.8782 247.796 65.2681 245.977L65.7233 245.377C66.8147 243.932 67.5863 242.834 67.5749 241.849C67.5602 240.546 66.7821 238.974 66.0545 237.603C65.6564 236.855 65.2371 236.108 64.8179 235.36C62.7982 231.753 60.71 228.025 60.3511 223.514C59.9123 217.97 62.8423 213.498 65.428 209.553L66.4166 208.038C67.1018 206.984 67.955 205.675 67.9795 204.87C67.8588 204.513 66.7429 203.676 66.1442 203.227L65.9044 203.046C59.9661 198.571 57.7605 193.323 59.3495 187.444C60.1994 184.296 61.8667 181.661 63.4785 179.112C64.4198 177.622 65.3106 176.216 65.9843 174.788C67.2568 172.091 66.8751 169.753 64.521 165.857C64.0821 165.132 63.627 164.408 63.1685 163.684C60.9303 160.131 58.6153 156.46 57.8779 152.01C56.8339 145.708 59.6708 140.306 62.5861 135.854L63.1473 135C65.6646 131.188 67.1671 128.703 66.3449 125.766C66.1279 124.999 65.8913 124.24 65.6597 123.484C65.0202 121.426 64.3611 119.3 64.0625 116.951C63.7069 114.121 63.8276 111.196 64.4329 108.009C65.4933 102.429 68.2797 97.1504 72.4919 92.7404C73.5882 91.5919 74.7775 90.6646 75.926 89.7683C76.9163 88.994 77.8511 88.2652 78.6064 87.4811C79.2557 86.8109 79.4808 85.9748 78.8168 83.4777L78.3698 81.8298C77.0044 76.8602 75.5932 71.7213 77.9962 65.9383C81.706 57.0238 91.1273 50.7966 100.906 50.7966C102.376 50.7966 103.842 50.9349 105.285 51.2066C124.884 30.0785 152.322 18 180.883 18C237.74 18 284 64.1277 284 120.824C284 122.305 283 123.595 281.568 123.972C281.316 124.037 275.383 125.587 268.954 126.939C267.756 127.19 266.635 127.313 265.528 127.313C263.115 127.313 261.335 126.731 259.766 126.219C258.519 125.812 257.532 125.49 256.323 125.49C256.08 125.49 255.829 125.501 255.563 125.529C253.377 125.755 251.942 126.313 250.279 126.959C248.287 127.733 246.031 128.612 242.661 128.732C242.359 128.742 242.077 128.747 241.807 128.747C238.687 128.747 237.241 128.039 235.799 127.185C235.068 126.749 234.261 126.271 231.861 126.049V197.59C231.929 197.587 231.998 197.585 232.066 197.585C233.833 197.585 235.451 198.512 236.396 200.064L237.208 201.384C238.708 203.798 240.256 206.295 241.248 209.364C242.329 212.722 242.909 216.197 242.971 219.696C243.103 227.359 239.742 233.759 233.747 237.26C233.143 237.611 232.517 237.936 231.861 238.237V356.747C231.861 358.542 230.399 360 228.598 360H204.775Z" fill="white"/>
    <mask id="mask0" mask-type="alpha" maskUnits="userSpaceOnUse" x="9" y="13" width="279" height="351">
      <path fill-rule="evenodd" clip-rule="evenodd" d="M9 13.7766H287.556V363.531H9V13.7766Z" fill="white"/>
    </mask>
    <g mask="url(#mask0)">
      <path fill-rule="evenodd" clip-rule="evenodd" d="M61.4257 284.745C61.6524 284.546 61.9771 284.278 62.4225 283.947C63.6185 283.059 65.0592 282.2 66.5814 281.292C67.8704 280.525 69.2034 279.732 70.5201 278.84C71.7242 278.027 72.9642 277.133 74.1438 276.111C72.4421 282.626 67.4152 287.883 60.7224 289.77H59.7843C60.8481 288.281 61.4142 286.548 61.4257 284.745ZM74.772 150.572C74.4408 149.814 74.2401 149.119 74.2482 148.526C74.258 148.033 74.4571 147.431 74.772 146.766V150.572ZM181.166 13.7766C152.269 13.7766 124.485 25.7988 104.356 46.8816C103.303 46.7559 102.243 46.6939 101.181 46.6922C90.1153 46.6922 79.4546 53.7678 75.2549 63.8994C72.4176 70.7382 74.1242 76.9631 75.4948 81.9653C75.6416 82.5008 75.7901 83.0412 75.9336 83.5864C76.0935 84.197 76.167 84.5872 76.1996 84.8288C75.64 85.3561 74.9302 85.9112 74.1862 86.4924C73.0033 87.4213 71.6589 88.4727 70.3993 89.7967C65.7526 94.678 62.6738 100.545 61.4958 106.765C60.8252 110.303 60.6931 113.57 61.0944 116.755C61.4273 119.397 62.1615 121.77 62.8092 123.867C63.0344 124.595 63.2628 125.329 63.47 126.074C63.891 127.579 62.9463 129.238 60.6898 132.666L60.1204 133.535C56.8638 138.529 53.7001 144.638 54.9287 152.066C55.7722 157.181 58.3811 161.33 60.68 164.992C61.1238 165.699 61.5676 166.404 61.9934 167.11C64.1178 170.641 63.8763 171.78 63.3003 173.002C62.713 174.252 61.8743 175.583 60.9851 176.99C59.3274 179.623 57.4462 182.608 56.4657 186.243C55.1131 191.27 55.3562 198.664 64.2059 205.356L64.3038 205.429C64.1781 205.628 64.0541 205.818 63.9513 205.978L63.705 206.356C63.4619 206.735 63.2155 207.112 62.9675 207.493C60.2362 211.67 56.8393 216.872 57.3679 223.549C57.7823 228.786 60.1481 233.026 62.2365 236.768C62.6428 237.499 63.0507 238.227 63.439 238.96C64.2287 240.449 64.4947 241.19 64.5615 241.558C64.3462 241.994 63.7082 242.839 63.3852 243.269L62.9381 243.858C61.4664 245.794 59.6342 248.202 58.6536 251.301C57.4577 255.07 57.8721 258.992 59.8838 262.964C58.7042 263.811 57.2863 264.645 55.8032 265.52C52.5548 267.432 48.9881 269.532 46.2095 272.71C44.3724 272.416 42.4846 272.264 40.5985 272.264C29.1155 272.264 19.4207 277.451 15.296 285.8C14.6581 287.09 14.3513 288.481 14.3709 289.873C11.3182 290.418 8.99976 293.089 8.99976 296.301C8.99976 325.721 41.801 349.654 82.1173 349.654C95.0003 349.654 106.563 347.063 116.562 341.942C120.453 345.55 122.693 350.595 122.693 356.007L122.68 356.16C122.667 356.356 122.654 356.553 122.647 356.751C122.579 358.526 123.236 360.251 124.468 361.529C125.698 362.808 127.395 363.531 129.169 363.531H153.46C157.064 363.531 159.986 360.609 159.986 357.001C159.986 346.368 168.632 337.715 179.26 337.715H180.046C180.257 337.753 180.471 337.777 180.688 337.794C190.694 338.527 198.534 346.964 198.534 357.001C198.534 360.609 201.456 363.531 205.06 363.531H228.886C232.49 363.531 235.412 360.609 235.412 357.001V331.185V240.059C235.502 240.008 235.592 239.954 235.683 239.902C242.725 235.78 246.677 228.308 246.523 219.404C246.456 215.571 245.823 211.763 244.644 208.092C243.528 204.629 241.798 201.829 240.271 199.359C240.007 198.933 239.739 198.502 239.475 198.063C238.496 196.452 237.068 195.253 235.412 194.589V129.98C236.949 130.784 238.883 131.451 242.099 131.451C242.404 131.451 242.723 131.445 243.066 131.433C246.99 131.293 249.633 130.261 251.756 129.432C253.316 128.825 254.443 128.385 256.19 128.203C256.336 128.188 256.479 128.181 256.613 128.181C257.272 128.181 257.865 128.366 259.041 128.751C260.663 129.282 262.887 130.011 265.818 130.011C267.156 130.011 268.497 129.866 269.92 129.566C276.427 128.193 282.438 126.617 282.689 126.55C285.557 125.796 287.558 123.2 287.558 120.234C287.558 91.9778 276.44 65.2936 256.256 45.0972C236.071 24.9009 209.403 13.7766 181.166 13.7766ZM88.7628 82.5906C92.4566 73.6213 97.4215 65.292 103.432 57.8279C103.312 57.8247 103.191 57.823 103.068 57.823C101.329 57.823 99.6095 58.1495 97.929 58.6377C93.4046 59.9535 89.4529 63.1599 87.4901 67.0649C85.0591 71.8989 87.2584 76.2203 88.4413 81.0543C88.5653 81.5604 88.6698 82.073 88.7628 82.5906ZM181.166 20.3068C235.949 20.3068 281.031 65.4161 281.031 120.234C281.031 120.234 274.998 121.821 268.576 123.176C267.546 123.393 266.641 123.481 265.818 123.481C262.09 123.481 260.126 121.651 256.613 121.651C256.264 121.651 255.898 121.667 255.518 121.708C250.008 122.278 248.214 124.715 242.834 124.906C242.573 124.916 242.33 124.921 242.099 124.921C236.295 124.921 239.322 122.087 228.886 122.085V228.713C231.829 227.043 233.57 224.308 233.833 220.473C234.021 217.73 233.8 214.888 233.27 212.193C232.702 209.305 232.037 205.961 230.611 203.37C229.793 201.885 231.069 200.535 232.353 200.535C232.926 200.535 233.503 200.804 233.895 201.451C235.62 204.296 237.396 206.876 238.429 210.09C239.408 213.135 239.942 216.32 239.997 219.516C240.103 225.593 237.75 231.126 232.387 234.267C231.268 234.921 230.093 235.444 228.886 235.871V331.185V357.001H205.06C205.06 343.387 194.52 332.259 181.166 331.281V331.185H179.258C165.01 331.185 153.46 342.744 153.46 357.001H129.169C129.18 356.669 129.219 356.343 129.219 356.007C129.219 346.789 124.372 338.729 117.105 334.168C107.999 339.678 96.5209 343.124 82.1173 343.124C45.5863 343.124 15.5261 321.987 15.5261 296.301H61.5611C72.881 293.553 81.2983 283.372 81.2983 271.2C81.2983 271.185 81.295 271.172 81.295 271.158H81.2983V120.755H81.3015C81.2999 120.58 81.2983 120.407 81.2983 120.234C81.2983 111.059 82.5872 102.168 84.9465 93.7034C84.3444 94.2503 83.7098 94.7776 83.0555 95.2902C78.9407 98.5227 75.9891 102.456 74.6104 107.259C73.9301 109.631 73.6886 112.055 73.8534 114.502C74.0345 117.132 74.9971 119.557 75.7835 122.071C77.4168 127.297 76.291 131.892 73.4798 136.569C71.2788 140.23 67.8019 144.053 67.7235 148.407C67.6452 152.843 70.8611 156.782 73.1224 160.504C75.6367 164.648 77.5457 169.02 76.6874 173.82C75.8814 178.327 72.7896 182.178 70.5543 186.168C69.7108 187.673 68.7743 189.425 68.8999 191.159C69.0451 193.157 70.7289 194.401 72.3197 195.606C76.4166 198.713 79.1103 202.469 77.5995 207.465C76.304 211.75 72.7439 215.053 71.0552 219.167C69.3894 223.227 71.5496 226.985 73.5662 230.584C75.7362 234.448 78.1118 238.604 77.544 243.078C77.2324 245.53 76.0772 247.694 74.5778 249.73C73.3574 251.386 71.3685 253.266 71.0438 255.307C70.7093 257.405 72.9805 259.434 73.545 261.413C73.9937 262.985 74.0133 264.696 73.4732 266.253C72.398 269.355 69.6586 271.544 66.8702 273.427C64.1634 275.257 61.0977 276.798 58.5361 278.702C57.4038 279.541 56.2323 280.546 55.6286 281.441C54.9059 282.512 54.7492 283.096 54.8863 284.458C55.0576 286.14 53.271 287.392 51.5448 287.392C51.0031 287.392 50.4663 287.268 49.9981 286.995C47.2456 285.39 44.0885 284.584 40.8775 284.584C39.569 284.584 38.2491 284.718 36.9438 284.987C32.2677 285.953 28.582 288.497 25.433 291.685C24.862 292.263 24.2273 292.505 23.6171 292.505C21.8386 292.505 20.2772 290.448 21.1452 288.695C24.4296 282.047 32.5712 278.795 40.5969 278.795C43.5452 278.795 46.4804 279.234 49.1497 280.104C49.2263 279.929 49.29 279.748 49.3764 279.577C52.4063 273.592 60.2346 271.324 65.1505 267.128C65.6237 266.725 66.4036 265.937 66.4966 265.811C66.6859 265.566 66.8572 265.311 67.0105 265.049C67.2553 264.627 67.1345 264.809 67.1802 264.686C67.2537 264.493 67.3059 264.289 67.3499 264.087C67.3499 264.069 67.3499 264.072 67.3532 264.049C67.3662 263.899 67.345 263.365 67.3532 263.365C67.3532 263.365 67.3548 263.37 67.3564 263.378V263.38V263.378C67.2683 262.737 66.5439 261.519 66.0838 260.717C64.728 258.347 64.0411 255.909 64.8748 253.273C65.5911 251.013 67.159 249.11 68.5981 247.197C69.8789 245.497 71.1287 243.783 71.1074 241.657C71.0846 239.651 70.1513 237.687 69.2083 235.904C67.0138 231.761 64.245 227.725 63.873 223.033C63.4847 218.108 66.5782 213.958 69.1936 209.891C70.1954 208.335 71.455 206.538 71.5104 204.677C71.5692 202.624 69.7353 201.351 68.1396 200.146C63.8861 196.928 61.3898 193.061 62.7668 187.943C63.9562 183.53 67.2667 179.904 69.2066 175.782C71.2494 171.438 69.9751 167.717 67.5832 163.743C65.1375 159.677 62.1386 155.67 61.3653 151C60.5218 145.896 62.7831 141.4 65.5878 137.1C68.2163 133.068 71.114 129.185 69.7549 124.315C68.9701 121.503 67.9356 118.838 67.5702 115.939C67.2357 113.278 67.4087 110.617 67.9079 107.982C68.864 102.939 71.4419 98.1717 75.1244 94.3009C76.9697 92.3614 79.3828 90.9574 81.2298 89.0359C83.2252 86.9626 82.9021 84.4141 82.243 81.9196C80.8496 76.6399 79.0679 71.7422 81.282 66.4021C84.4113 58.8564 92.4322 53.2225 101.181 53.2225C102.892 53.2241 104.633 53.438 106.369 53.8984C106.478 53.9261 106.57 53.9686 106.668 54.0045C125.016 33.3885 151.676 20.3068 181.166 20.3068Z" fill="white"/>
    </g>
    <path fill-rule="evenodd" clip-rule="evenodd" d="M114.269 374C112.465 374 111 372.542 111 370.745C111 361.512 118.544 354 127.815 354H153.731C155.535 354 157 355.457 157 357.255V370.745C157 372.542 155.535 374 153.731 374H114.269Z" fill="white"/>
    <path fill-rule="evenodd" clip-rule="evenodd" d="M153.529 350H127.878C116.917 350 108 359.139 108 370.369C108 374.033 110.896 377 114.471 377H153.529C157.102 377 160 374.033 160 370.369V356.631C160 352.969 157.102 350 153.529 350ZM153.529 356.631V370.369H114.471C114.471 362.783 120.473 356.631 127.878 356.631H153.529Z" fill="white"/>
    <path fill-rule="evenodd" clip-rule="evenodd" d="M205.269 374C203.465 374 202 372.542 202 370.745V357.255C202 355.457 203.465 354 205.269 354H231.184C240.455 354 248 361.512 248 370.745C248 372.542 246.535 374 244.731 374H205.269Z" fill="white"/>
    <path fill-rule="evenodd" clip-rule="evenodd" d="M231.121 350H205.471C201.898 350 199 352.969 199 356.631V370.369C199 374.033 201.898 377 205.471 377H244.529C248.102 377 251 374.033 251 370.369C251 359.139 242.082 350 231.121 350ZM231.121 356.631C238.526 356.631 244.529 362.783 244.529 370.369H205.471V356.631H231.121Z" fill="white"/>
    <path fill-rule="evenodd" clip-rule="evenodd" d="M120.739 38C119.871 38 118.998 37.9106 118.068 37.7268C116.934 37.4991 115.723 37.221 114.532 36.7201C113.178 36.1525 111.85 35.5784 110.562 34.7962C109.289 34.0237 108.075 32.9812 106.849 31.6086C104.562 29.0407 104.378 25.3684 106.402 22.6769C107.665 20.9986 109.654 20 111.725 20C112.899 20 114.052 20.3204 115.06 20.927C115.343 21.0978 115.627 21.262 115.913 21.4263C116.566 21.802 117.216 22.1776 117.843 22.607C118.632 23.1485 119.343 23.5844 120.015 23.9422L120.857 24.4008C121.39 24.6935 121.92 24.9895 122.475 25.2449C122.985 25.4823 123.46 25.7506 123.943 26.0304C124.422 26.3052 125.006 26.6418 125.581 27.1606C127.327 28.4568 128.23 30.5596 127.95 32.7096C127.642 35.0434 125.966 37.0063 123.844 37.5479C123.684 37.6016 123.505 37.6487 123.327 37.6845C123.204 37.7268 123.077 37.7626 122.945 37.7951C122.226 37.9593 121.573 37.9854 121.017 37.9984L120.739 38Z" fill="white"/>
    <path fill-rule="evenodd" clip-rule="evenodd" d="M111.099 17C107.984 17 104.988 18.4415 103.09 20.8577C100.082 24.682 100.346 30.0863 103.719 33.7035C105.189 35.2835 106.674 36.4972 108.26 37.4178C109.753 38.2859 111.235 38.9039 112.751 39.5123C114.239 40.1096 115.721 40.4346 116.972 40.6735C118.128 40.8949 119.227 41 120.328 41L120.678 40.9968C121.46 40.9809 122.313 40.9363 123.281 40.726C123.42 40.6942 123.556 40.6591 123.686 40.6225C124.015 40.5572 124.283 40.4776 124.479 40.4139C127.825 39.5076 130.442 36.5466 130.918 33.0552C131.361 29.8267 129.984 26.6777 127.309 24.7106C126.515 24.0417 125.756 23.6244 125.284 23.3647L125.187 23.3106C124.715 23.051 124.127 22.726 123.435 22.4186C123.005 22.2275 122.507 21.9663 121.982 21.6891C121.682 21.5331 121.382 21.3738 121.079 21.2193C120.495 20.9214 119.868 20.5519 119.164 20.09C118.38 19.5771 117.629 19.1646 116.967 18.8014C116.697 18.6517 116.424 18.5036 116.157 18.3491C114.628 17.4651 112.879 17 111.099 17ZM111.099 23.3711C111.706 23.3711 112.318 23.5224 112.871 23.841C113.769 24.3602 114.694 24.8205 115.563 25.3908C116.382 25.9259 117.219 26.4308 118.093 26.8752C118.984 27.3292 119.852 27.8213 120.769 28.2275C121.236 28.4346 121.666 28.6751 122.113 28.9204C122.491 29.129 122.856 29.3345 123.178 29.6276C123.224 29.6658 123.227 29.6722 123.24 29.6865C123.251 29.6945 123.261 29.7008 123.271 29.7072C124.141 30.271 124.633 31.1805 124.492 32.2079C124.365 33.1317 123.642 34.0889 122.661 34.2928C122.543 34.3183 122.41 34.3804 122.384 34.3804C122.368 34.3804 122.403 34.3533 122.523 34.2657C122.658 34.1686 122.7 34.1335 122.687 34.1335C122.645 34.1335 122.089 34.4585 121.868 34.5062C121.436 34.6018 120.983 34.6193 120.541 34.6273C120.469 34.6289 120.398 34.6289 120.328 34.6289C119.613 34.6289 118.916 34.554 118.209 34.4202C117.194 34.2243 116.162 33.9997 115.202 33.6143C113.968 33.1189 112.713 32.6045 111.562 31.9355C110.405 31.2633 109.406 30.373 108.501 29.403C107.277 28.0873 107.099 26.1792 108.221 24.7537C108.918 23.8665 110.001 23.3711 111.099 23.3711Z" fill="white"/>
    <path fill-rule="evenodd" clip-rule="evenodd" d="M106.329 54.6747C95.7368 51.87 85.0187 58.1528 81.2836 67.1637C79.0748 72.4991 80.852 77.391 82.243 82.6628C82.9011 85.1544 83.2236 87.6998 81.2315 89.7707C79.3876 91.69 76.9785 93.094 75.1378 95.0295C71.4598 98.8957 68.8861 103.657 67.9316 108.694C67.4331 111.326 67.2605 113.984 67.5944 116.642C67.9593 119.539 68.992 122.199 69.7771 125.01C71.134 129.873 68.2394 133.75 65.6137 137.78C62.8152 142.075 60.5576 146.566 61.4014 151.663C62.1718 156.328 65.1657 160.328 67.6091 164.39C69.997 168.361 71.2692 172.075 69.2282 176.414C67.2914 180.533 63.9864 184.153 62.799 188.561C61.4242 193.673 63.9164 197.536 68.1629 200.75C69.7559 201.953 71.5868 203.227 71.5282 205.275C71.4744 207.134 70.2153 208.931 69.2152 210.485C66.604 214.545 63.5157 218.69 63.9033 223.611C64.2747 228.298 67.039 232.327 69.2282 236.465C70.1713 238.246 71.103 240.208 71.1258 242.213C71.147 244.336 69.8993 246.047 68.6222 247.744C67.1839 249.656 65.6186 251.557 64.9035 253.814C64.0711 256.447 64.7585 258.882 66.1121 261.251C66.5698 262.052 67.2947 263.266 67.381 263.909C67.3647 263.796 67.3924 264.416 67.3778 264.579C67.3745 264.6 67.3761 264.597 67.3745 264.615C67.3322 264.817 67.2784 265.021 67.2051 265.213C67.1595 265.336 67.28 265.155 67.0357 265.575C66.8826 265.838 66.7115 266.092 66.5242 266.339C66.4298 266.462 65.6511 267.25 65.1788 267.653C60.2709 271.845 52.4555 274.108 49.4306 280.086C49.3443 280.259 49.2824 280.439 49.2042 280.615C39.281 277.38 25.7319 280.114 21.2459 289.193C20.0845 291.546 23.2918 294.444 25.5283 292.181C28.6704 288.996 32.3517 286.457 37.0185 285.492C41.5093 284.564 46.181 285.239 50.0513 287.496C52.0059 288.636 55.1546 287.168 54.9314 284.964C54.7946 283.604 54.9526 283.018 55.6726 281.949C56.2752 281.055 57.4448 280.052 58.5752 279.212C61.1326 277.311 64.1933 275.772 66.8956 273.945C69.6794 272.064 72.4143 269.879 73.4877 266.779C74.0269 265.223 74.0074 263.514 73.5594 261.944C72.9958 259.968 70.73 257.941 71.0623 255.845C71.3865 253.807 73.3737 251.93 74.5905 250.275C76.0891 248.242 77.2407 246.081 77.5518 243.63C78.1187 239.164 75.747 235.012 73.5822 231.153C71.5673 227.557 69.4123 223.805 71.0737 219.748C72.7596 215.639 76.3139 212.34 77.6072 208.06C79.1156 203.07 76.4279 199.318 72.3361 196.217C70.7479 195.012 69.0669 193.771 68.922 191.773C68.7965 190.043 69.7315 188.292 70.5737 186.79C72.8052 182.803 75.892 178.958 76.6983 174.454C77.5534 169.662 75.6476 165.293 73.1375 161.156C70.8815 157.439 67.6693 153.502 67.7475 149.073C67.8257 144.725 71.2969 140.904 73.4943 137.25C76.3008 132.578 77.4264 127.986 75.7942 122.768C75.0091 120.257 74.0481 117.834 73.8673 115.207C73.7011 112.763 73.9438 110.343 74.6231 107.973C75.9995 103.175 78.9462 99.2463 83.0542 96.0177C85.3119 94.2452 87.374 92.3781 88.3839 89.7658C89.3776 87.1943 89.0697 84.4076 88.4312 81.8002C87.2502 76.9719 85.0545 72.654 87.4815 67.8257C89.4411 63.9253 93.3863 60.7227 97.9016 59.4084C100.241 58.7284 102.65 58.3518 105.087 58.7496C108.006 59.2274 109.263 55.4509 106.329 54.6747Z" fill="#663768"/>
    <path fill-rule="evenodd" clip-rule="evenodd" d="M139.422 22.5418C139.396 22.4457 139.371 22.3497 139.347 22.2537C139.561 23.0568 139.875 23.7423 140.567 24.2822C141.226 24.7938 142.235 25.1101 143.065 24.9644C144.918 24.6382 146.164 23.0353 145.982 21.1276C145.754 18.7464 144.969 16.6152 143.71 14.6033C143.118 13.6545 142.262 12.8331 141.474 12.0615C140.717 11.3213 139.612 10.5214 138.503 10.3691C137.52 9.78787 136.148 9.84914 135.44 10.8692C134.775 11.8313 134.907 12.8695 135.547 13.7157C135.607 13.9956 135.695 14.2705 135.834 14.5188C136 14.8153 136.176 15.105 136.341 15.3998C136.217 15.1762 136.091 14.951 135.967 14.7275C136.307 15.3485 136.676 15.9446 137.036 16.5507C138.048 18.4268 138.887 20.4835 139.422 22.5418Z" fill="#663768"/>
    <mask id="mask1" mask-type="alpha" maskUnits="userSpaceOnUse" x="9" y="4" width="279" height="373">
      <path fill-rule="evenodd" clip-rule="evenodd" d="M9 377H288V4H9V377Z" fill="white"/>
    </mask>
    <g mask="url(#mask1)">
      <path fill-rule="evenodd" clip-rule="evenodd" d="M116 331H228V113H116V331Z" fill="#D2D2E4"/>
      <path fill-rule="evenodd" clip-rule="evenodd" d="M181 331V331.097C194.434 332.082 205.036 343.289 205.036 357H229V331H181Z" fill="#D2D2E4"/>
      <path fill-rule="evenodd" clip-rule="evenodd" d="M180 331H111C121.86 334.085 129.827 344.096 129.827 355.999C129.827 356.337 129.791 356.665 129.778 357H154.132C154.132 342.639 165.714 331 180 331Z" fill="#D2D2E4"/>
      <path fill-rule="evenodd" clip-rule="evenodd" d="M82.0008 296.13L128.825 274.605C128.826 274.758 149 270.849 149 271.005C149 296.715 135.217 343 82.0008 343C45.2435 343 15 321.842 15 296.13H82.0008Z" fill="#A260AA"/>
      <path fill-rule="evenodd" clip-rule="evenodd" d="M114 371H153V357H127.387C119.993 357 114 363.269 114 371Z" fill="#A260AA"/>
      <path fill-rule="evenodd" clip-rule="evenodd" d="M244 371H205V357H230.613C238.007 357 244 363.269 244 371Z" fill="#A260AA"/>
      <path fill-rule="evenodd" clip-rule="evenodd" d="M148.367 273.803L81 298V119.939L149 113L148.367 273.803Z" fill="#A260AA"/>
      <path fill-rule="evenodd" clip-rule="evenodd" d="M180.499 121.018L81.0049 122C81.0016 121.672 81 121.345 81 121.018C81 66.1502 125.917 21 180.499 21C235.083 21 280 66.1502 280 121.018H180.499Z" fill="#A260AA"/>
      <path fill-rule="evenodd" clip-rule="evenodd" d="M154 121C157.037 121.21 161.202 124.486 166.521 124.716C170.32 124.882 174.738 122 179.385 122.154C183.391 122.285 187.563 125.457 192.018 125.567C196.131 125.669 200.472 122.712 204.828 122.786C209.012 122.858 213.233 125.963 217.523 126C221.767 126.038 226.048 123.006 230.283 123.001C234.589 122.998 238.885 126.018 243.059 125.962C247.437 125.904 251.63 122.767 255.726 122.642C260.211 122.506 264.639 125.372 268.608 125.145C273.315 124.875 277.3 121.501 281 121.085" fill="#A260AA"/>
      <path fill-rule="evenodd" clip-rule="evenodd" d="M55.974 297.001H56.026C56.01 297.001 55.992 296.999 55.974 296.999V297.001Z" fill="#A260AA"/>
      <path fill-rule="evenodd" clip-rule="evenodd" d="M80.999 270.974C80.999 270.992 81.001 271.01 81.001 271.026V270.974H80.999Z" fill="#A260AA"/>
      <path fill-rule="evenodd" clip-rule="evenodd" d="M56 298H81V272C81 286.358 69.8061 298 56 298Z" fill="#A260AA"/>
      <path fill-rule="evenodd" clip-rule="evenodd" d="M152.02 120.947L152.154 120.973C151.442 120.671 150.659 120.471 149.93 120.195C149.182 119.909 148.485 119.596 147.892 119.265C146.556 118.519 145.276 117.724 144.103 116.858C142.923 115.988 142.032 115.265 141.083 114.383C139.997 113.375 139.052 112.307 137.9 111.332C137.436 110.939 136.428 110.917 135.825 111.151C135.139 111.421 134.894 111.946 135.041 112.452C135.423 113.76 136.407 114.98 137.448 116.102C138.532 117.274 139.835 118.37 141.274 119.354C142.69 120.321 144.241 121.207 145.918 121.967C146.838 122.382 147.84 122.748 148.928 122.91C149.582 123.009 150.302 123.041 150.96 122.928C151.519 122.834 151.882 122.586 152.377 122.429C153.492 122.078 152.948 121.17 152.02 120.947Z" fill="#663768"/>
      <path fill-rule="evenodd" clip-rule="evenodd" d="M123.76 29.7523C123.749 29.7456 123.739 29.7388 123.728 29.7303C123.716 29.7167 123.711 29.7099 123.668 29.6675C123.344 29.3568 122.982 29.1379 122.604 28.9155C122.157 28.6541 121.729 28.3961 121.263 28.1754C120.349 27.7426 119.482 27.2198 118.594 26.736C117.723 26.2607 116.887 25.7243 116.07 25.1523C115.203 24.5463 114.281 24.0558 113.384 23.5007C111.833 22.545 109.827 23.005 108.745 24.475C107.628 25.9925 107.804 28.0261 109.027 29.4298C109.927 30.4619 110.924 31.4124 112.078 32.1271C113.227 32.84 114.478 33.3899 115.709 33.9161C116.665 34.3269 117.697 34.568 118.709 34.775C119.484 34.9329 120.247 35.0161 121.035 34.9974C121.476 34.9872 121.928 34.9686 122.359 34.8684C122.654 34.7988 123.545 34.203 123.013 34.6104C122.713 34.8412 122.951 34.6851 123.15 34.641C124.13 34.4237 124.85 33.4018 124.976 32.4173C125.117 31.3242 124.628 30.3532 123.76 29.7523Z" fill="#663768"/>
      <path fill-rule="evenodd" clip-rule="evenodd" d="M197.987 69.8269C197.801 69.2446 197.563 68.672 197.278 68.1457C196.891 67.4259 196.345 66.7221 195.718 66.1814C194.116 64.7962 192.028 63.8988 189.847 64.0092C187.513 64.1291 185.494 65.0137 183.733 66.4805C183.075 67.0308 182.512 67.7282 182.04 68.4384C181.635 68.9071 181.26 69.4014 180.987 69.9325C180.37 71.1306 180.026 72.3079 180.001 73.6595C179.985 74.6225 180.141 75.6558 180.495 76.5612C181.339 78.7255 182.779 80.6498 184.895 81.7967C187.002 82.9404 189.492 83.3211 191.84 82.7117C194.14 82.115 195.94 80.6514 197.316 78.815C197.905 78.0264 198.329 77.0763 198.621 76.1501C198.904 75.2447 199.058 74.2146 198.979 73.266C198.872 72.0407 198.537 70.8842 197.987 69.8269Z" fill="#231F20"/>
      <path fill-rule="evenodd" clip-rule="evenodd" d="M184.5 64C179.837 64 179.83 71 184.5 71C189.162 71 189.171 64 184.5 64Z" fill="white"/>
      <path fill-rule="evenodd" clip-rule="evenodd" d="M266.086 73.2127C256.954 77.5579 249.721 84.418 245.176 93.435C240.786 102.144 238.325 112.861 241.314 122.376C242.069 124.785 245.999 124.459 245.894 121.762C245.541 112.855 246.219 104.149 250.203 96.0123C254.053 88.146 260.273 80.8098 268.034 76.5155C270.228 75.3008 268.299 72.1588 266.086 73.2127Z" fill="#663768"/>
      <path fill-rule="evenodd" clip-rule="evenodd" d="M271.085 89.3397C262.497 95.9349 257.071 105.725 257 116.729C256.979 119.781 261.475 119.733 261.659 116.729C262.215 107.566 266.473 98.3704 273.424 92.4014C275.072 90.986 272.837 87.994 271.085 89.3397Z" fill="#663768"/>
      <path fill-rule="evenodd" clip-rule="evenodd" d="M199.994 93.4018C190.795 98.4525 179.393 96.5896 171.954 89.2501C165.329 82.7123 163.525 72.7097 166.526 64.1989C171.174 57.0894 178.509 52.3027 187.068 50.7573C192.988 49.6899 199.197 50.388 203.97 54.3113C208.082 57.692 210.792 62.4592 211.913 67.6428C214.16 78.026 209.232 88.3284 199.994 93.4018ZM215.959 71.5823C215.251 59.0089 206.107 47.3961 192.977 47.0122C185.17 46.7854 176.338 49.7223 170.018 55.0986C169.549 54.7746 168.936 54.7309 168.45 55.3124C166.969 57.0878 165.742 59.0494 164.763 61.1228C163.522 63.1152 162.573 65.2842 162.03 67.6282C161.925 68.072 162.11 68.477 162.408 68.754C161.326 75.4553 162.615 82.5066 166.625 88.202C173.438 97.8742 186.172 102.535 197.461 98.6064C208.789 94.6636 216.638 83.6939 215.959 71.5823Z" fill="#5A275C"/>
      <g style="mix-blend-mode:overlay" opacity="0.613909">
        <path fill-rule="evenodd" clip-rule="evenodd" d="M126.72 60.6379C126.72 63.3197 124.537 65.4952 121.846 65.4952C119.153 65.4952 116.972 63.3197 116.972 60.6379C116.972 57.9561 119.153 55.7805 121.846 55.7805C124.537 55.7805 126.72 57.9561 126.72 60.6379Z" fill="#A48CA9"/>
        <path fill-rule="evenodd" clip-rule="evenodd" d="M154.015 51.8416C154.015 54.5234 151.832 56.699 149.141 56.699C146.448 56.699 144.267 54.5234 144.267 51.8416C144.267 49.1599 146.448 46.9843 149.141 46.9843C151.832 46.9843 154.015 49.1599 154.015 51.8416Z" fill="#A48CA9"/>
        <path fill-rule="evenodd" clip-rule="evenodd" d="M111.186 84.6516C111.186 87.3333 109.003 89.5073 106.312 89.5073C103.621 89.5073 101.438 87.3333 101.438 84.6516C101.438 81.9682 103.621 79.7942 106.312 79.7942C109.003 79.7942 111.186 81.9682 111.186 84.6516Z" fill="#A48CA9"/>
        <path fill-rule="evenodd" clip-rule="evenodd" d="M116.326 143.079C116.326 145.105 114.679 146.747 112.647 146.747C110.613 146.747 108.966 145.105 108.966 143.079C108.966 141.054 110.613 139.411 112.647 139.411C114.679 139.411 116.326 141.054 116.326 143.079Z" fill="#A48CA9"/>
        <path fill-rule="evenodd" clip-rule="evenodd" d="M106.312 114.659C106.312 117.341 104.128 119.516 101.437 119.516C98.7462 119.516 96.563 117.341 96.563 114.659C96.563 111.977 98.7462 109.802 101.437 109.802C104.128 109.802 106.312 111.977 106.312 114.659Z" fill="#A48CA9"/>
        <path fill-rule="evenodd" clip-rule="evenodd" d="M127.908 79.7941C127.908 81.4618 126.55 82.8133 124.877 82.8133C123.202 82.8133 121.845 81.4618 121.845 79.7941C121.845 78.1263 123.202 76.7732 124.877 76.7732C126.55 76.7732 127.908 78.1263 127.908 79.7941Z" fill="#A48CA9"/>
        <path fill-rule="evenodd" clip-rule="evenodd" d="M163.891 35.5199C163.891 37.1876 162.534 38.5407 160.86 38.5407C159.186 38.5407 157.829 37.1876 157.829 35.5199C157.829 33.8521 159.186 32.499 160.86 32.499C162.534 32.499 163.891 33.8521 163.891 35.5199Z" fill="#A48CA9"/>
        <path fill-rule="evenodd" clip-rule="evenodd" d="M99.5945 164.843C99.5945 166.51 98.2367 167.864 96.5631 167.864C94.8879 167.864 93.5317 166.51 93.5317 164.843C93.5317 163.175 94.8879 161.823 96.5631 161.823C98.2367 161.823 99.5945 163.175 99.5945 164.843Z" fill="#A48CA9"/>
        <path fill-rule="evenodd" clip-rule="evenodd" d="M96.5625 220.537C96.5625 222.205 95.2064 223.556 93.5328 223.556C91.8575 223.556 90.4998 222.205 90.4998 220.537C90.4998 218.869 91.8575 217.516 93.5328 217.516C95.2064 217.516 96.5625 218.869 96.5625 220.537Z" fill="#A48CA9"/>
        <path fill-rule="evenodd" clip-rule="evenodd" d="M237.734 76.7728C237.734 78.4405 236.376 79.7936 234.703 79.7936C233.028 79.7936 231.671 78.4405 231.671 76.7728C231.671 75.105 233.028 73.7535 234.703 73.7535C236.376 73.7535 237.734 75.105 237.734 76.7728Z" fill="#A48CA9"/>
        <path fill-rule="evenodd" clip-rule="evenodd" d="M254.879 68.409C254.879 70.0768 253.523 71.4298 251.849 71.4298C250.174 71.4298 248.816 70.0768 248.816 68.409C248.816 66.7412 250.174 65.3898 251.849 65.3898C253.523 65.3898 254.879 66.7412 254.879 68.409Z" fill="#A48CA9"/>
        <path fill-rule="evenodd" clip-rule="evenodd" d="M234.702 51.8416C234.702 54.0172 232.932 55.7807 230.749 55.7807C228.566 55.7807 226.798 54.0172 226.798 51.8416C226.798 49.666 228.566 47.9025 230.749 47.9025C232.932 47.9025 234.702 49.666 234.702 51.8416Z" fill="#A48CA9"/>
      </g>
    </g>
  </g>
  <defs>
    <filter id="filter0_d" x="0" y="0" width="296.556" height="391" filterUnits="userSpaceOnUse" color-interpolation-filters="sRGB">
      <feFlood flood-opacity="0" result="BackgroundImageFix"/>
      <feColorMatrix in="SourceAlpha" type="matrix" values="0 0 0 0 0 0 0 0 0 0 0 0 0 0 0 0 0 0 127 0"/>
      <feOffset dy="5"/>
      <feGaussianBlur stdDeviation="4.5"/>
      <feColorMatrix type="matrix" values="0 0 0 0 0 0 0 0 0 0 0 0 0 0 0 0 0 0 0.5 0"/>
      <feBlend mode="normal" in2="BackgroundImageFix" result="effect1_dropShadow"/>
      <feBlend mode="normal" in="SourceGraphic" in2="effect1_dropShadow" result="shape"/>
    </filter>
  </defs>
</svg>
