<svg xmlns="http://www.w3.org/2000/svg" viewBox="0 0 162.79774 220.89979">
  <defs>
    <style>
      .cls-1 {
        isolation: isolate;
      }

      .cls-2 {
        fill: #663768;
      }

      .cls-3 {
        fill: #d2d2e4;
      }

      .cls-4 {
        fill: #a260aa;
      }

      .cls-5 {
        fill: #231f20;
      }

      .cls-6 {
        fill: #fff;
      }

      .cls-7 {
        fill: #5a275c;
      }

      .cls-8 {
        mix-blend-mode: overlay;
      }

      .cls-9 {
        fill: #a48ca9;
      }
    </style>
  </defs>
  <g class="cls-1">
    <g id="Layer_2" data-name="Layer 2">
      <g id="Artwork">
        <g>
          <path class="cls-2" d="M76.149,7.57419l-.04569-.17385a2.1262,2.1262,0,0,0,.74661,1.22454A2.067,2.067,0,0,0,80.16085,6.721a8.83123,8.83123,0,0,0-1.38954-3.94108,8.82566,8.82566,0,0,0-1.36683-1.53486A3.56514,3.56514,0,0,0,75.58816.22346a1.40511,1.40511,0,0,0-1.87354.30221,1.38237,1.38237,0,0,0,.06429,1.71843,1.75438,1.75438,0,0,0,.17615.48571c.1011.17862.209.35292.31071.53124l-.22964-.40564c.20808.37472.43491.73459.65454,1.10032A16.356,16.356,0,0,1,76.149,7.57419Z"/>
          <rect class="cls-3" x="62.11503" y="63.24093" width="68.6532" height="133.55863"/>
          <path class="cls-3" d="M101.52005,196.79953v.059a15.8029,15.8029,0,0,1,14.646,15.75421H130.7681V196.79953Z"/>
          <path class="cls-3" d="M100.35306,196.79953H58.1741A15.80834,15.80834,0,0,1,69.68265,212.004c0,.20551-.02295.40509-.03076.6087H84.53983A15.81323,15.81323,0,0,1,100.35306,196.79953Z"/>
          <path class="cls-4" d="M40.814,175.43206l28.52383-13.17258c.00131.09391,12.2902-2.29717,12.2902-2.20326,0,15.73361-8.39711,44.05625-40.814,44.05625C18.42412,204.11247,0,191.16567,0,175.43206Z"/>
          <path class="cls-4" d="M60.39809,212.61275H84.53978a0,0,0,0,1,0,0v0a8.287,8.287,0,0,1-8.287,8.287H60.39809a0,0,0,0,1,0,0v-8.287A0,0,0,0,1,60.39809,212.61275Z" transform="translate(144.93787 433.51254) rotate(-180)"/>
          <path class="cls-4" d="M116.16615,212.61275H132.0208a8.287,8.287,0,0,1,8.287,8.287v0a0,0,0,0,1,0,0H116.16615a0,0,0,0,1,0,0v-8.287A0,0,0,0,1,116.16615,212.61275Z"/>
          <polygon class="cls-4" points="81.628 162.052 40.311 176.859 40.311 67.903 82.016 63.658 81.628 162.052"/>
          <path class="cls-4" d="M101.51992,67.58458l-61.20552.60125q-.003-.30061-.003-.60125a61.20849,61.20849,0,0,1,122.417,0Z"/>
          <path class="cls-4" d="M84.81514,67.48987c1.86529.13837,4.4222,2.28775,7.689,2.43928,2.332.10816,5.046-1.78283,7.89791-1.68237,2.46034.08666,5.02231,2.16726,7.75747,2.23987,2.52569.06705,5.19116-1.873,7.866-1.82426,2.56944.04683,5.16132,2.08361,7.79441,2.10807,2.60723.02422,5.236-1.96381,7.83491-1.96678,2.6447-.003,5.28229,1.97843,7.84481,1.94181,2.68833-.03842,5.26429-2.09622,7.77853-2.17784,2.75447-.08941,5.47232,1.791,7.91016,1.64173,2.89006-.17692,5.33731-2.38975,7.60942-2.66358"/>
          <g>
            <path class="cls-4" d="M24.44633,175.89533h.02588l-.02588-.00128Z"/>
            <path class="cls-4" d="M40.3101,160.03022l.00134.026v-.026Z"/>
            <path class="cls-4" d="M24.47221,175.89533H40.31144V160.05622A15.83916,15.83916,0,0,1,24.47221,175.89533Z"/>
          </g>
          <path class="cls-2" d="M111.29481,133.35175a23.08838,23.08838,0,0,0-7.35474.5368c-4.90576,1.06446-9.41357,3.32575-14.10144,5.041-4.25158,1.55554-9.0747,2.90625-13.61535,1.92706-4.36939-.94226-7.57691-4.10913-9.89624-7.78448a15.62621,15.62621,0,0,1-2.78919-7.09619c-.13879-2.22559.4801-4.81659,2.46814-6.07453a1.0069,1.0069,0,0,0-1.01562-1.73755c-9.15674,5.3501-2.50769,18.11872,3.63842,23.03656a18.09568,18.09568,0,0,0,13.76868,3.54688c5.11829-.61975,9.786-2.6546,14.53137-4.54358a48.97624,48.97624,0,0,1,8.471-2.71082,20.34007,20.34007,0,0,1,4.39258-.39892c.62939.01257,2.08179-.11676,2.39014.59967.69848,1.6225,2.87048.578,2.998-.812C115.38392,134.66547,113.17494,133.55872,111.29481,133.35175Z"/>
          <path class="cls-2" d="M136.61827,122.62515a24.88978,24.88978,0,0,0-2.77978-5.2926,1.16605,1.16605,0,0,0-2.01221,1.17614,19.21462,19.21462,0,0,1,1.62988,5.40339,19.59368,19.59368,0,0,1,.34485,5.07263,6.06146,6.06146,0,0,1-4.73889,5.76813c-2.83765.82952-5.79468.615-8.71192.78167-3.42675.1958-6.6582.88648-9.36547,3.10486a2.06683,2.06683,0,0,0,0,2.90259,2.09886,2.09886,0,0,0,2.90258,0c2.52967-2.07813,6.28406-1.93952,9.36377-2.009,3.28785-.07422,6.76465-.40375,9.6637-2.09974,3.28748-1.92334,4.72913-5.31335,4.66443-9.0346A20.00858,20.00858,0,0,0,136.61827,122.62515Z"/>
          <path class="cls-2" d="M83.903,67.64234l.08251.01453c-.43485-.17847-.91288-.29611-1.35873-.46095a9.77483,9.77483,0,0,1-1.244-.55015,21.94916,21.94916,0,0,1-2.31423-1.42611,19.99825,19.99825,0,0,1-1.845-1.46694c-.66313-.597-1.24018-1.23022-1.94429-1.808a1.49245,1.49245,0,0,0-1.26631-.10661c-.41917.15991-.5699.47092-.48023.7699a5.8554,5.8554,0,0,0,1.46984,2.16353,13.70808,13.70808,0,0,0,2.33734,1.92628,18.82912,18.82912,0,0,0,2.83682,1.54805,7.1189,7.1189,0,0,0,1.8384.5602,4.14717,4.14717,0,0,0,1.24046.01077,5.97527,5.97527,0,0,0,.86529-.29594C84.80244,68.31281,84.47073,67.77415,83.903,67.64234Z"/>
          <path class="cls-2" d="M114.9402,137.81336a7.71914,7.71914,0,0,0-3.406-3.999,2.86587,2.86587,0,0,0-3.17139.22326,2.82091,2.82091,0,0,0-1.02331,3.00147c.16211.4248.2605.85626.38257,1.29046.07055.25171.15918.49732.22.75251.01123.04693.05932.29614.09326.46191.01306.119.03149.27149.03491.3064a10.22321,10.22321,0,0,0,.20227,1.44922,4.83477,4.83477,0,0,0,1.28626,2.22461,3.23131,3.23131,0,0,0,4.48022,0C115.714,142.06128,115.73524,139.74427,114.9402,137.81336Z"/>
          <path class="cls-2" d="M66.30037,11.8877l-.0188-.01251a.49807.49807,0,0,0-.03784-.03723,3.34728,3.34728,0,0,0-.6576-.443c-.27612-.15478-.541-.306-.82959-.43615-.56543-.25489-1.10022-.56348-1.65-.84858A16.49466,16.49466,0,0,1,61.546,9.17762c-.53613-.35773-1.10644-.64637-1.661-.97229a2.22618,2.22618,0,0,0-2.69421,3.4917,8.38559,8.38559,0,0,0,1.8872,1.59021A17.02863,17.02863,0,0,0,61.323,14.341a9.8885,9.8885,0,0,0,1.8551.50561,6.72019,6.72019,0,0,0,1.43775.13092,4.18323,4.18323,0,0,0,.81921-.07629c.1825-.04071.73279-.39136.404-.15118-.18615.1361-.03821.044.08484.01794a1.56569,1.56569,0,0,0,1.12866-1.31012A1.5984,1.5984,0,0,0,66.30037,11.8877Z"/>
          <path class="cls-5" d="M111.91755,36.28968a6.28516,6.28516,0,0,0-.42993-1.05023,4.41741,4.41741,0,0,0-.94873-1.22919,5.05184,5.05184,0,0,0-3.56811-1.35651,6.09371,6.09371,0,0,0-3.71558,1.54462,5.61081,5.61081,0,0,0-1.02954,1.22388,4.82937,4.82937,0,0,0-.63989.9339,5.24112,5.24112,0,0,0-.59888,2.3291,4.98544,4.98544,0,0,0,.2998,1.81512A6.14068,6.14068,0,0,0,103.961,43.7732a5.6757,5.6757,0,0,0,4.22046.57171,6.09862,6.09862,0,0,0,3.32788-2.43566,5.67123,5.67123,0,0,0,.793-1.66645,4.96208,4.96208,0,0,0,.21777-1.80255A5.80276,5.80276,0,0,0,111.91755,36.28968Z"/>
          <path class="cls-6" d="M103.41731,31.88611c-4.3125,0-4.31958,6.702,0,6.702C107.72957,38.58814,107.73689,31.88611,103.41731,31.88611Z"/>
          <path class="cls-2" d="M55.67774,26.95106A13.325,13.325,0,0,0,40.30192,34.61c-1.35711,3.27146-.26507,6.27155.589,9.50479.40387,1.52848.60187,3.08888-.62109,4.35956-1.13228,1.17659-2.61038,2.03707-3.74176,3.225a16.83346,16.83346,0,0,0-4.42335,8.38022,15.59414,15.59414,0,0,0-.20715,4.87363,35.78766,35.78766,0,0,0,1.34008,5.13172c.833,2.98209-.9437,5.36032-2.55556,7.83148-1.71816,2.63388-3.104,5.38684-2.58678,8.51306.47339,2.8612,2.31177,5.31488,3.81116,7.8055,1.4661,2.435,2.24637,4.71318.99426,7.37432-1.18852,2.52581-3.21806,4.74651-3.94647,7.44931-.84476,3.13473.68507,5.50393,3.29326,7.47471.9771.73814,2.10074,1.51886,2.06488,2.77568a6.82771,6.82771,0,0,1-1.41993,3.19432c-1.60258,2.48974-3.49887,5.03186-3.26037,8.0492.22728,2.87448,1.92467,5.34628,3.26876,7.884a8.027,8.027,0,0,1,1.16426,3.52489,5.69677,5.69677,0,0,1-1.53692,3.3924,13.06612,13.06612,0,0,0-2.28184,3.72127,5.51694,5.51694,0,0,0,.74092,4.56026,6.61864,6.61864,0,0,1,.7791,1.63113c-.00928-.06927.00723.31052-.00219.41l-.00181.02277a2.40609,2.40609,0,0,1-.10293.367c-.02851.075.04592-.03636-.10435.22167a4.5331,4.5331,0,0,1-.31448.46788,10.77434,10.77434,0,0,1-.82529.80665c-3.01425,2.57031-7.8118,3.95914-9.66823,7.62519-.05353.10574-.09223.21555-.13944.323-6.09236-1.98283-14.41083-.3065-17.164,5.26187a1.63234,1.63234,0,0,0,2.62831,1.83183,13.77677,13.77677,0,0,1,7.055-4.102,11.36084,11.36084,0,0,1,8.00129,1.229c1.20012.699,3.13266-.20053,2.99619-1.55312a2.28287,2.28287,0,0,1,.45508-1.84948,8.12494,8.12494,0,0,1,1.78033-1.677c1.57123-1.166,3.44972-2.11083,5.10854-3.2305,1.709-1.15346,3.38833-2.49417,4.04721-4.39469a4.95253,4.95253,0,0,0,.044-2.96525c-.34595-1.21184-1.73763-2.45508-1.53318-3.73951.199-1.25075,1.41877-2.40218,2.16627-3.41594a8.7676,8.7676,0,0,0,1.81786-4.076c.34763-2.739-1.10842-5.28476-2.43689-7.65176-1.237-2.20416-2.56046-4.50578-1.5395-6.99366,1.03411-2.51986,3.21715-4.54249,4.011-7.16815.92525-3.05981-.72506-5.36073-3.23689-7.26329-.974-.73779-2.00606-1.50028-2.09532-2.72476a5.7981,5.7981,0,0,1,1.01335-3.05619c1.37039-2.44442,3.266-4.80308,3.75982-7.56518.5255-2.93886-.64457-5.61754-2.18536-8.15477-1.38511-2.28071-3.35737-4.69349-3.30861-7.41.048-2.66725,2.17839-5.0103,3.52725-7.25111,1.72421-2.86475,2.4138-5.68034,1.41257-8.88084a20.27931,20.27931,0,0,1-1.18258-4.6364,12.81189,12.81189,0,0,1,.46359-4.437,14.3033,14.3033,0,0,1,5.17536-7.33052,9.41308,9.41308,0,0,0,3.27249-3.83517,8.13091,8.13091,0,0,0,.029-4.885c-.72506-2.96088-2.07275-5.60833-.58369-8.56944a10.55865,10.55865,0,0,1,6.3982-5.16161,9.96362,9.96362,0,0,1,4.4107-.40443C56.70656,29.7434,57.47806,27.427,55.67774,26.95106Z"/>
          <g>
            <path class="cls-2" d="M153.33449,38.7801a26.87322,26.87322,0,0,0-12.62768,12.31928c-2.65088,5.30487-4.137,11.83453-2.33228,17.63055.45679,1.4671,2.82984,1.26837,2.76563-.37427-.2124-5.42559.19629-10.72985,2.60254-15.68707a27.28656,27.28656,0,0,1,10.76806-11.87634C155.83547,40.05281,154.67092,38.13826,153.33449,38.7801Z"/>
            <path class="cls-2" d="M156.76613,48.77345a20.86892,20.86892,0,0,0-8.564,16.48773c-.01245,1.83637,2.72143,1.8067,2.83252,0a21.22718,21.22718,0,0,1,7.15381-14.64459C159.19045,49.76491,157.83156,47.96345,156.76613,48.77345Z"/>
          </g>
          <path class="cls-7" d="M123.08745,37.46633c-.43664-7.76257-6.09388-14.93077-14.21743-15.16722a21.83553,21.83553,0,0,0-14.2045,4.99173.67875.67875,0,0,0-.96913.132,16.77741,16.77741,0,0,0-2.28182,3.58739A13.20656,13.20656,0,0,0,89.72336,35.025a.719.719,0,0,0,.23476.696,16.27162,16.27162,0,0,0,2.60924,12.00539,16.73476,16.73476,0,0,0,30.52009-10.2601ZM113.211,50.93644a14.71454,14.71454,0,0,1-17.34686-2.56258,14.87087,14.87087,0,0,1-3.35783-15.46527,19.06807,19.06807,0,0,1,12.70753-8.29814c3.663-.65962,7.50369-.22807,10.45732,2.19423A14.679,14.679,0,0,1,113.211,50.93644Z"/>
          <g class="cls-8">
            <circle class="cls-9" cx="65.21052" cy="30.55182" r="2.99406"/>
            <circle class="cls-9" cx="81.97619" cy="25.12979" r="2.99406"/>
            <circle class="cls-9" cx="55.66899" cy="45.35306" r="2.99406"/>
            <circle class="cls-9" cx="59.56008" cy="81.36735" r="2.26063"/>
            <circle class="cls-9" cx="52.67492" cy="63.84963" r="2.99406"/>
            <circle class="cls-9" cx="67.07239" cy="42.359" r="1.86187"/>
            <circle class="cls-9" cx="89.17524" cy="15.06931" r="1.86187"/>
            <circle class="cls-9" cx="49.68086" cy="94.7823" r="1.86187"/>
            <circle class="cls-9" cx="47.81899" cy="129.11115" r="1.86187"/>
            <circle class="cls-9" cx="134.53234" cy="40.49713" r="1.86187"/>
            <circle class="cls-9" cx="145.06428" cy="35.3419" r="1.86187"/>
            <circle class="cls-9" cx="132.10438" cy="25.12979" r="2.42797"/>
          </g>
        </g>
      </g>
    </g>
  </g>
</svg>
