<svg width="127" height="45" viewBox="0 0 127 45" fill="none" xmlns="http://www.w3.org/2000/svg">
  <path fill-rule="evenodd" clip-rule="evenodd" d="M83.5859 26.5178C79.5638 26.0877 75.4248 26.5466 71.4882 27.3763C63.4159 29.0789 56 32.692 48.2897 35.4354C41.2949 37.923 33.3608 40.0813 25.8923 38.5162C18.7034 37.0086 13.4278 31.947 9.61124 26.0717C7.40194 22.6697 5.28476 18.8184 5.02319 14.7256C4.79453 11.1669 5.81282 7.02623 9.08318 5.01504C10.8779 3.91033 9.26249 1.18612 7.41181 2.23648C-7.65028 10.7896 3.28602 31.2036 13.3981 39.0661C19.8714 44.0989 27.9174 45.6928 36.0489 44.7368C44.4682 43.7456 52.1473 40.4922 59.9531 37.4738C64.4836 35.72 69.093 34.0685 73.8867 33.1397C76.272 32.6776 78.6836 32.4538 81.1134 32.5002C82.1498 32.521 84.5384 32.3147 85.0467 33.4594C86.195 36.0541 89.768 34.3835 89.9786 32.1613C90.3125 28.6169 86.6786 26.8487 83.5859 26.5178Z" fill="#663768"/>
  <path fill-rule="evenodd" clip-rule="evenodd" d="M125.406 9.46504C124.357 6.27935 122.555 3.72434 120.807 0.907354C119.518 -1.16738 116.276 0.679343 117.476 2.80906C118.922 5.3754 119.596 8.68721 120.174 11.5462C120.711 14.2161 120.935 17.0331 120.745 19.7482C120.402 24.6286 117.617 27.7302 112.902 29.0772C108.206 30.4178 103.312 30.0717 98.4848 30.3402C92.8152 30.6571 87.4666 31.7745 82.9852 35.3629C81.567 36.4997 81.7805 38.8752 82.9852 40.0557C84.3886 41.427 86.3678 41.1973 87.791 40.0557C91.9762 36.6953 98.1902 36.9201 103.286 36.8069C108.727 36.6873 114.479 36.1536 119.278 33.4126C124.718 30.3013 127.103 24.8194 126.997 18.8005C126.94 15.6343 126.399 12.4793 125.406 9.46504Z" fill="#663768"/>
  <path fill-rule="evenodd" clip-rule="evenodd" d="M90.1361 34.1636C88.9264 31.3312 87.1424 29.1361 84.3492 27.6127C82.6553 26.6904 80.4873 26.8067 78.9615 27.9796C77.5581 29.0559 76.5285 31.1429 77.2217 32.8957C77.4987 33.5902 77.6635 34.2979 77.8708 35.0105C77.9931 35.4217 78.1409 35.8246 78.2462 36.2424C78.2649 36.3177 78.3465 36.7256 78.4043 36.9976C78.4263 37.1941 78.4569 37.4431 78.4637 37.5005C78.5436 38.29 78.6098 39.1026 78.8069 39.8741C79.1824 41.3435 79.9232 42.4116 80.9919 43.519C83.0681 45.6682 86.4781 45.3111 88.6053 43.519C91.4495 41.1224 91.4869 37.3268 90.1361 34.1636Z" fill="#663768"/>
</svg>
